<?xml version="1.0" encoding="utf-8"?>
<!-- Generator: Adobe Illustrator 28.3.0, SVG Export Plug-In . SVG Version: 6.00 Build 0)  -->
<svg version="1.1" id="Calque_1" xmlns="http://www.w3.org/2000/svg" xmlns:xlink="http://www.w3.org/1999/xlink" x="0px" y="0px"
	 viewBox="0 0 135.6 116.4" style="enable-background:new 0 0 135.6 116.4;" xml:space="preserve">
<style type="text/css">
	.st0{fill:#FFFFFF;filter:url(#Adobe_OpacityMaskFilter);}
	.st1{mask:url(#mask0_2443_2011_00000059295092695876559300000002249200161427355300_);}
	.st2{fill:#CF896D;}
</style>
<defs>
	<filter id="Adobe_OpacityMaskFilter" filterUnits="userSpaceOnUse" x="11.7" y="1.6" width="112.1" height="112.9">
		<feColorMatrix  type="matrix" values="1 0 0 0 0  0 1 0 0 0  0 0 1 0 0  0 0 0 1 0"/>
	</filter>
</defs>
<mask maskUnits="userSpaceOnUse" x="11.7" y="1.6" width="112.1" height="112.9" id="mask0_2443_2011_00000059295092695876559300000002249200161427355300_">
	<path class="st0" d="M123.8,1.6H11.7v112.9h112.1V1.6z"/>
</mask>
<g class="st1">
	<path class="st2" d="M113.2,114.5c-2.9,0-5.5-1.1-7.6-3.2L82.5,88.1c-0.7-0.7-0.7-1.9,0-2.6c0.8-0.7,1.9-0.7,2.7,0l23.1,23.2
		c1.3,1.3,3,2,4.9,2c1.8,0,3.6-0.7,4.9-2c2.7-2.8,2.7-7.2,0-9.9L95,75.6c-0.7-0.7-0.7-1.9,0-2.6c0.8-0.7,1.9-0.7,2.7,0l23,23.2
		c4.2,4.2,4.2,11,0,15.2C118.7,113.4,116,114.5,113.2,114.5L113.2,114.5z"/>
	<path class="st2" d="M58.8,96.5c-25.9,0-47.1-21.3-47.1-47.4c0-26.2,21.1-47.4,47.1-47.4s47.1,21.3,47.1,47.4
		C105.8,75.2,84.7,96.5,58.8,96.5z M58.8,5.3C34.9,5.3,15.5,24.9,15.5,49c0,24.1,19.4,43.7,43.3,43.7s43.3-19.6,43.3-43.7
		C102.1,24.9,82.7,5.3,58.8,5.3z"/>
	<path class="st2" d="M23.1,50.1c-1,0-1.9-0.8-1.9-1.8c0-20.5,16.5-37.1,36.8-37.1c1,0,1.9,0.8,1.9,1.8s-0.8,1.8-1.9,1.8
		c-18.2,0-33.1,15-33.1,33.4C25,49.2,24.1,50.1,23.1,50.1"/>
	<path class="st2" d="M63,33c-0.1-1.5-0.7-3-1.6-4.3l-0.8-0.9l-0.1-0.1c-0.6-0.6-1.2-1.1-1.9-1.5c-1.1-0.6-2.2-1-3.5-1.2
		c-0.7-0.1-1.4-0.1-2.1,0c-1.4,0.2-2.7,0.7-4,1.5c-0.5,0.3-0.9,0.6-1.4,0.9l-11.5,7.4c-0.4,0.2-0.7,0.5-1.1,0.7
		c-1.3,0.8-2.3,1.9-3,3.2L32,38.9l-0.1,0.2c-1.7,4.4-0.2,7.3-0.1,7.4c0.4,0.7,0.8,1.4,1.3,2.1c1,1.1,2.2,2,3.5,2.5
		c0.3,0.1,0.6,0.2,0.8,0.3c0.2,0,0.3,0.1,0.4,0.1c0.1,0,1.5,0.4,2.7,0.2c1.5-0.1,2.9-0.6,4.2-1.4c1.4-0.9,2.7-1.7,4.1-2.6l3.8-2.5
		c2.1-1.3,4.1-2.6,6.2-4c0.9-0.6,1.7-1.2,2.3-2c0.6-0.8,1.1-1.6,1.5-2.5c0.1-0.2,0.1-0.4,0.2-0.6l0.1-0.3l0.2-0.8V35
		C63.1,34.3,63.1,33.7,63,33 M45.6,46.2c-1,0.7-2,1.3-3.1,1.9l-0.5,0.2c0,0-0.1,0-0.2,0.1l-0.4,0.1c-0.2,0.1-0.4,0.1-0.6,0.2
		c-0.5,0.1-1.1,0.1-1.7,0.1c-1.1-0.1-2.1-0.5-2.9-1.1c-0.8-0.5-1.4-1.2-1.8-2.1c-0.5-0.9-0.7-1.9-0.6-3c0-0.5,0.2-1.1,0.3-1.6
		c0.4-1,1-1.9,1.8-2.6c0.3-0.2,0.6-0.5,1-0.7l0.2-0.1c1-0.7,2-1.3,3.1-2c0,0.3,0,0.7,0,1c0.1,1.5,0.5,2.9,1.1,4.3
		c0.7,1.3,1.6,2.5,2.7,3.4c0.7,0.5,1.5,1,2.3,1.3C46.2,45.9,45.9,46.1,45.6,46.2 M59.9,34.9c-0.4,1.6-1.2,2.8-2.5,3.7
		c-0.5,0.3-1,0.6-1.4,0.9l-5,3.2c0,0-0.2,0.1-0.3,0.2c-0.1,0.1-0.2,0.2-0.5,0.2c-0.6,0.1-1.2,0.1-1.7,0c-1.1-0.2-2-0.6-2.8-1.4
		c-0.5-0.5-1-1-1.3-1.6c-0.8-1.3-1.1-2.6-1.1-4c0-1,0.3-2,0.8-2.9c1.1-0.7,2.2-1.4,3.2-2.1l1.7-1.1c0.6-0.4,1.2-0.8,1.8-1.1
		c0.9-0.6,1.9-0.9,2.9-1c0.7-0.1,1.3,0,1.9,0.2c1.3,0.3,2.4,1,3.2,2c0.7,0.9,1.2,2,1.2,3.1C60.1,33.8,60,34.4,59.9,34.9"/>
	<path class="st2" d="M88.4,59.6c1.7-13-4.2-27.5-8.2-35.7c2.6,2.1,5.6,4.9,8.2,8.2C95.2,41,95.2,50.2,88.4,59.6 M57.8,59.5
		c6.8,2.4,16.7,5.1,25.8,4.5c-3.7,2.1-7.5,2.8-11.5,2.4C66.4,65.7,61.4,62.5,57.8,59.5 M74.8,53.7c3.7,1.2,6.8,3.5,9.2,6.9
		c-10.4,0.8-22.8-3.3-28.9-5.7C59.7,53.3,67.7,51.3,74.8,53.7z M74.9,21.5c3.2,5.8,10.8,21.2,10.2,34.9c-2.5-2.8-5.6-4.8-9.2-6
		c-1.5-0.5-2.9-0.8-4.4-1C65.9,38.2,71.9,26.3,74.9,21.5z M76,16.7C76,16.7,76,16.7,76,16.7c-0.2-0.1-0.4-0.2-0.5-0.2
		c0,0-0.1,0-0.1,0c-0.2,0-0.4,0-0.5,0c0,0,0,0-0.1,0c-0.2,0-0.4,0.1-0.5,0.2c-0.2,0.1-0.4,0.3-0.5,0.5c-1,1.3-12.4,16.5-6.1,31.9
		c-9.2,0-17.3,3.9-17.8,4.2c0,0,0,0-0.1,0c-0.1,0-0.1,0.1-0.2,0.1c-0.1,0-0.1,0.1-0.2,0.1c0,0-0.1,0.1-0.1,0.1
		c-0.1,0-0.1,0.1-0.1,0.2c-0.1,0.1-0.1,0.1-0.1,0.2c0,0-0.1,0.1-0.1,0.1c-0.1,0.1-0.1,0.2-0.1,0.3c0,0,0,0.1,0,0.1
		c0,0.1,0,0.2,0,0.3c0,0,0,0.1,0,0.1c0,0.1,0,0.2,0,0.2s0,0.1,0,0.2c0,0.1,0,0.2,0.1,0.2c0,0,0,0.1,0.1,0.1c0,0.1,0.1,0.1,0.1,0.2
		c0,0,0,0.1,0.1,0.1c0.4,0.5,9.8,12.4,22.5,14c5.8,0.7,11.3-0.8,16.5-4.6c0.2-0.1,0.4-0.2,0.5-0.3c0.1-0.1,0.2-0.2,0.3-0.2
		c12.7-14.7,8.2-27,2.3-34.7C84.9,21.9,76.3,16.9,76,16.7"/>
	<path class="st2" d="M55.4,88.1c1.8-0.7,3.3-1.8,4.5-3.4l0.8-1.2l0.1-0.1c0.5-0.9,0.8-1.8,1.1-2.8c0.3-1.5,0.4-2.9,0.1-4.4
		c-0.2-0.8-0.4-1.6-0.8-2.4c-0.7-1.5-1.8-2.9-3.2-4c-0.5-0.4-1.1-0.8-1.6-1.3l-13-10.5c-0.4-0.3-0.8-0.6-1.2-1
		c-1.4-1.2-3.1-1.9-4.8-2.3l-0.3-0.1h-0.2c-5.8-0.3-8.8,2.4-8.9,2.5c-0.7,0.7-1.4,1.4-2,2.2c-1,1.5-1.5,3.2-1.7,5c0,0.4,0,0.7,0,1
		c0,0.2,0,0.4,0,0.5c0,0.1,0.2,1.9,0.7,3.2c0.7,1.7,1.8,3.2,3.2,4.3c1.5,1.2,3.1,2.5,4.6,3.7l4.3,3.5c2.3,1.9,4.6,3.8,7,5.6
		c1.1,0.8,2.1,1.5,3.2,1.9c1.2,0.5,2.4,0.7,3.5,0.7c0.3,0,0.5,0,0.8,0H52l1-0.1l0.1-0.1C53.8,88.6,54.6,88.4,55.4,88.1 M33.4,72.9
		C32.2,72,31.1,71,30,70.1l-0.4-0.5c0,0-0.1-0.1-0.1-0.2l-0.3-0.4c-0.1-0.2-0.2-0.4-0.4-0.6c-0.3-0.6-0.5-1.2-0.7-1.9
		c-0.3-1.3-0.2-2.5,0.2-3.8c0.4-1.1,1-2,1.8-2.8c0.9-0.9,2-1.5,3.3-1.8c0.6-0.2,1.3-0.2,2-0.2c1.4,0,2.6,0.4,3.8,1.2
		c0.4,0.2,0.8,0.5,1.2,0.8l0.2,0.2c1.2,0.9,2.3,1.8,3.5,2.8c-0.4,0.1-0.8,0.2-1.2,0.4c-1.8,0.6-3.3,1.6-4.7,2.9
		c-1.3,1.3-2.3,2.7-3,4.4c-0.4,1-0.6,2.1-0.7,3.1C34.1,73.4,33.8,73.2,33.4,72.9 M52,85.2c-2,0.2-3.8-0.3-5.3-1.5
		c-0.5-0.4-1.1-0.9-1.6-1.3l-5.7-4.6c0,0-0.2-0.2-0.4-0.3c-0.2-0.1-0.2-0.2-0.4-0.5c-0.3-0.7-0.5-1.3-0.6-1.9
		c-0.2-1.3,0-2.5,0.6-3.8c0.4-0.8,0.8-1.5,1.4-2.1c1.2-1.3,2.7-2.2,4.4-2.7c1.2-0.4,2.5-0.4,3.7-0.1c1.2,1,2.5,2,3.7,3l1.9,1.5
		c0.7,0.5,1.3,1.1,2,1.6c1.1,0.8,1.8,1.8,2.3,3c0.3,0.7,0.5,1.5,0.5,2.3c0.1,1.6-0.3,3.1-1.2,4.4c-0.8,1.2-1.9,2.1-3.2,2.6
		C53.3,85,52.7,85.2,52,85.2z"/>
</g>
</svg>
