<?xml version="1.0" encoding="utf-8"?>
<!-- Generator: Adobe Illustrator 28.3.0, SVG Export Plug-In . SVG Version: 6.00 Build 0)  -->
<svg version="1.1" id="Calque_1" xmlns="http://www.w3.org/2000/svg" xmlns:xlink="http://www.w3.org/1999/xlink" x="0px" y="0px"
	 viewBox="0 0 135.6 116.4" style="enable-background:new 0 0 135.6 116.4;" xml:space="preserve">
<style type="text/css">
	.st0{clip-path:url(#SVGID_00000036938041826158982380000004552377477933970332_);}
	.st1{fill:#CF896D;}
</style>
<g>
	<defs>
		<rect id="SVGID_1_" x="1.7" y="0.6" width="130" height="113"/>
	</defs>
	<clipPath id="SVGID_00000050664479571393062120000014258837828182073523_">
		<use xlink:href="#SVGID_1_"  style="overflow:visible;"/>
	</clipPath>
	<g style="clip-path:url(#SVGID_00000050664479571393062120000014258837828182073523_);">
		<path class="st1" d="M125.4,10.8c-1.7,0-3,1.2-3,2.9c0,1.6,1.2,2.7,2.8,2.8c1.8,0,3.1-1.1,3.1-2.8C128.3,12,127.2,10.9,125.4,10.8
			 M104.8,27.2c0-1.7-1.4-3.2-3-3.2c-1.4,0-2.9,1.7-2.9,3.2c0,1.5,1.4,2.7,2.9,2.8C103.5,30.1,104.8,28.9,104.8,27.2 M8,16.5
			c1.7,0,3.1-1.1,3.1-2.8c0-1.6-1.3-2.9-3-2.9c-1.8,0-3,1-3,2.8C5.1,15.3,6.2,16.5,8,16.5 M8.1,83.7c1.5,0,3-1.5,3.1-3
			c0-1.4-1.6-3-3-3c-1.7,0-2.9,1.3-2.9,3C5.2,82.4,6.5,83.7,8.1,83.7 M28.7,67.5c0,1.6,1.3,3,3,3c1.5,0,3-1.5,3-3
			c0-1.6-1.4-2.9-3-2.8C29.8,64.6,28.7,65.7,28.7,67.5 M31.3,30c1.9,0.1,3-0.7,3.3-2.8c0.2-1.4-1.4-2.9-2.9-3.1
			c-1.4-0.1-2.9,1.2-3,2.7C28.5,28.5,29.6,29.8,31.3,30 M66.8,9.9c1.6,0,3-1.4,3-2.9c0-1.5-1.4-3-3-3c-1.6,0-2.9,1.3-2.9,3
			C63.9,8.6,65.1,9.9,66.8,9.9z M62.6,11c-3.8,2.2-7.6,4.3-11.4,6.5c-3.9,2.3-7.8,4.5-11.8,6.8c-0.5,0.3-0.9,0.6-1.4,0.8
			c-0.5,0.3-0.7,0.6-0.6,1.3c0.3,2.5-0.7,4.6-3.1,5.7c-1.1,0.5-1.4,1.3-1.4,2.4c0,8.5,0,17,0,25.5c0,1.3,0.3,1.9,1.6,2.4
			c2.3,1.1,3.3,3.5,2.9,6.6c3.1,1.8,6.3,3.6,9.5,5.5c0.8,0.5,1.6,0.9,2.4,1.5c0.6,0.4,0.8,1,0.4,1.7c-0.4,0.6-1,1.1-1.8,0.7
			c-1.3-0.7-2.6-1.4-3.9-2.2c-2.3-1.3-4.6-2.6-6.9-4c-0.7-0.5-1.3-0.6-2.1,0c-2.2,1.4-4.4,1.4-6.6,0c-1-0.6-1.7-0.5-2.6,0
			c-3.6,2.1-7.3,4.3-10.9,6.4c-0.8,0.4-1,0.9-0.9,1.8c0.4,2.9-1.9,5.7-4.9,6.2c-2.9,0.5-6-1.7-6.7-4.6c-0.7-2.7,1.2-5.7,3.9-6.6
			c1.7-0.6,3.2-0.4,4.7,0.5c0.5,0.3,0.9,0.6,1.4,0.9c4.2-2.4,8.4-4.8,12.6-7.2c0.5-0.3,0.8-0.6,0.8-1.3c-0.1-2.7,1-4.7,3.4-5.9
			c1-0.5,0.9-1.3,0.9-2.2c0-4.3,0-8.6,0-12.8c0-4.3,0-8.4,0-12.6c0-1-0.1-1.8-1.3-2.5c-2.1-1.1-3.2-3-3-5.4c0.1-1-0.4-1.5-1.2-2
			c-3.6-2-7.2-4.1-10.8-6.2c-1-0.6-1.7-0.6-2.7,0c-3.3,2-7.2,0.5-8.4-3C1.5,12.5,3,9.2,6.1,8.3c3.4-1.1,6.1,0.4,7.4,3.3
			c0.6,1.2,0.6,2,0.3,3.7c4.1,2.4,8.2,4.7,12.3,7.1c0.7,0.4,1.3,0.6,2.1,0c2.2-1.4,4.6-1.5,6.8,0.1c0.8,0.5,1.3,0.3,1.9,0
			c3.7-2.1,7.5-4.3,11.2-6.4c3.7-2.1,7.3-4.2,11-6.2c1.4-0.8,2.1-1.5,2-3.2c-0.1-2.8,2.2-5,5.1-5.4c2.3-0.3,5.3,1.6,6,3.9
			c0.2,0.6,0.3,1.4,0.2,2.1c-0.1,1.1,0.4,1.7,1.3,2.3c4.4,2.5,8.8,5,13.2,7.5c3.1,1.8,6.2,3.6,9.4,5.3c0.9,0.5,1.5,0.7,2.5,0
			c2-1.3,4.2-1.3,6.2-0.1c1,0.6,1.6,0.6,2.5,0.1c3.8-2.2,7.6-4.4,11.4-6.6c0.7-0.4,0.9-0.8,0.8-1.7c-0.3-2.7,1.2-5.1,3.6-5.9
			c2.6-0.9,5.1-0.1,6.6,1.7c1.7,2,1.7,4.7,0.3,7c-1.5,2.3-5.1,3.3-7.5,1.8c-1.4-0.9-2.3-0.7-3.5,0.1c-3.3,2-6.8,3.9-10.2,5.8
			c-0.9,0.5-1.4,1-1.3,2.2c0.2,2.4-1,4.2-3.1,5.3c-1,0.6-1.2,1.3-1.2,2.2c0,4.3,0,8.6,0,12.8c0,0.7,0,1.4-0.3,2
			c-0.2,0.4-0.8,0.7-1.2,0.8c-0.7,0.1-1.2-0.4-1.3-1.1c-0.1-0.6-0.1-1.3-0.1-1.9c0-4.3,0-8.6,0-12.8c0-1-0.2-1.7-1.3-2.2
			c-2.3-1.1-3.3-3-3.1-5.5c0.1-0.9-0.1-1.3-0.8-1.7c-2-1.1-3.9-2.3-5.9-3.4c-5.8-3.3-11.6-6.7-17.5-10c-0.6-0.3-1-0.6-1.7-0.1
			C67.7,13.4,65.1,13,62.6,11"/>
		<path class="st1" d="M8.2,87.1c-2.8,0-5.6-2.1-6.3-5.1c-0.7-2.8,1.2-6.1,4.2-7.2c1.7-0.6,3.4-0.5,5.1,0.5c0.3,0.2,0.6,0.4,1,0.6
			l0.3,0.2l3.3-1.9c3-1.8,6.1-3.5,9.1-5.2c0.4-0.3,0.6-0.5,0.6-0.9c-0.1-2.9,1.1-5.1,3.6-6.3c0.7-0.3,0.7-0.7,0.7-1.5v-0.3V43.8
			c0-3.1,0-6.1,0-9.2c0-1-0.1-1.6-1-2.1c-2.3-1.2-3.4-3.3-3.3-5.8c0-0.8-0.2-1.1-1-1.6c-3.3-1.8-6.7-3.8-10.8-6.2
			c-0.9-0.5-1.4-0.5-2.3,0c-1.7,1-3.5,1.2-5.3,0.6c-1.8-0.6-3.2-2-3.8-3.8c-0.6-1.7-0.5-3.5,0.3-5c0.7-1.4,2-2.4,3.5-2.9
			c3.5-1.1,6.4,0.3,7.9,3.6c0.6,1.3,0.6,2.2,0.3,3.7l2.6,1.5c3.1,1.8,6.3,3.6,9.4,5.5c0.6,0.4,1,0.4,1.6,0c2.4-1.5,5-1.5,7.3,0.1
			c0.5,0.4,0.8,0.3,1.4-0.1l4.4-2.5c2.3-1.3,4.5-2.6,6.8-3.9l3-1.7c2.6-1.5,5.4-3.1,8.1-4.6c1.2-0.7,1.8-1.3,1.8-2.8
			c-0.1-2.9,2.2-5.4,5.5-5.9c2.6-0.4,5.8,1.7,6.5,4.2c0.2,0.7,0.3,1.5,0.2,2.3C72.9,8,73.1,8.5,74,9c4,2.2,7.9,4.5,11.8,6.7l2.6,1.5
			c2.7,1.5,5.4,3.1,8.2,4.7c0.8,0.5,1.2,0.6,2,0.1c2-1.4,4.5-1.4,6.7-0.1c0.9,0.5,1.3,0.5,2,0.1c3.7-2.2,7.5-4.4,11.4-6.6
			c0.5-0.3,0.7-0.5,0.6-1.2c-0.3-2.9,1.3-5.4,3.9-6.4c2.7-0.9,5.5-0.2,7.1,1.8c1.8,2.1,1.9,5.1,0.3,7.5c-0.8,1.3-2.3,2.2-3.9,2.6
			c-1.6,0.4-3,0.1-4.3-0.6c-1.2-0.8-1.9-0.6-3,0.1c-3.3,2-6.7,3.9-10.2,5.8c-0.8,0.5-1.2,0.8-1.1,1.8c0.2,2.4-1,4.5-3.3,5.8
			c-0.9,0.5-1,0.9-1,1.9c0,4.3,0,8.6,0,12.8c0,0.7,0,1.5-0.3,2.2c-0.3,0.5-1,1-1.6,1.1c-0.4,0.1-0.8,0-1.1-0.3
			c-0.4-0.3-0.6-0.7-0.7-1.2c-0.1-0.5-0.1-1-0.1-1.5v-3.1c0-3.4,0-6.8,0-10.2c0-1-0.2-1.4-1-1.8c-2.4-1.1-3.6-3.2-3.3-6
			c0.1-0.8-0.1-1-0.6-1.3c-1.3-0.7-2.5-1.4-3.7-2.2c-0.7-0.4-1.4-0.8-2.1-1.3l-5.6-3.2c-4-2.3-7.9-4.6-11.9-6.9
			c-0.6-0.4-0.8-0.4-1.1-0.1c-2.6,1.9-5.3,1.9-8.1-0.3l-3.2,1.8c-2.6,1.5-5.3,3-7.9,4.5c-3.8,2.2-7.7,4.4-11.5,6.6l-0.2,0.1
			c-0.2,0.1-0.4,0.3-0.7,0.4c-0.3,0.1-0.5,0.3-0.8,0.5c-0.3,0.2-0.4,0.3-0.4,0.9c0.3,2.8-0.9,5-3.4,6.2c-1,0.5-1.1,1-1.1,2
			c0,10.3,0,18.1,0,25.5c0,1.1,0.3,1.6,1.3,2c2.4,1.1,3.5,3.5,3.2,6.8l1.8,1c2.4,1.4,4.9,2.8,7.4,4.3l0.4,0.2c0.7,0.4,1.4,0.8,2,1.3
			c0.8,0.6,1,1.4,0.5,2.2c-0.8,1.3-1.7,1.1-2.4,0.8c-1.3-0.7-2.6-1.4-3.9-2.2L42.6,76c-1.9-1.1-3.9-2.2-5.8-3.4
			c-0.6-0.4-1-0.5-1.6,0c-2.3,1.5-4.8,1.5-7.1,0c-0.7-0.5-1.3-0.4-2.1,0c-3.2,1.9-7,4.1-10.9,6.4c-0.6,0.3-0.7,0.5-0.6,1.4
			c0.4,3.1-2,6.1-5.2,6.7C8.8,87.1,8.5,87.1,8.2,87.1L8.2,87.1z M8.1,75.4c-0.6,0-1.1,0.1-1.7,0.3c-2.6,0.9-4.2,3.7-3.6,6.1
			c0.7,2.8,3.5,4.8,6.2,4.3c2.8-0.5,4.8-3.1,4.5-5.7c-0.1-1.1,0.1-1.7,1.1-2.3c3.9-2.2,7.7-4.4,10.9-6.3c0.8-0.5,1.8-0.9,3.1,0
			c2,1.3,4.1,1.3,6.1,0c1-0.7,1.8-0.5,2.6,0c1.9,1.1,3.9,2.3,5.8,3.3l1.1,0.6c1.3,0.7,2.6,1.4,3.9,2.2c0.3,0.2,0.7,0.3,1.1-0.5
			c0.3-0.4,0.2-0.8-0.2-1c-0.6-0.4-1.3-0.8-2-1.2L46.6,75c-2.5-1.4-5-2.8-7.4-4.3l-2.4-1.4v-0.3c0.4-3-0.6-5.2-2.6-6.2
			c-1.3-0.6-1.8-1.4-1.8-2.9c0-7.3,0-15.2,0-25.5c0-1.2,0.3-2.1,1.6-2.8c2.1-1,3.1-2.8,2.8-5.3c-0.1-0.7,0-1.3,0.8-1.8
			c0.3-0.1,0.5-0.3,0.7-0.4c0.2-0.1,0.4-0.3,0.7-0.4l0.2-0.1c3.8-2.2,7.7-4.4,11.6-6.6c2.6-1.5,5.2-3,7.9-4.5l3.8-2.2l0.3,0.2
			c2.5,2,4.9,2.2,7.2,0.4c0.9-0.6,1.6-0.3,2.2,0.1c4,2.3,7.9,4.6,11.9,6.9l5.6,3.2c0.7,0.4,1.4,0.8,2.2,1.3c1.2,0.7,2.5,1.4,3.7,2.2
			c0.9,0.5,1.1,1.1,1,2.1c-0.2,2.4,0.7,4.1,2.8,5.1c1.3,0.6,1.6,1.5,1.6,2.6c0,3.4,0,6.7,0,10.2v3.1c0,0.5,0,1,0.1,1.4
			c0,0.3,0.1,0.5,0.3,0.6c0.1,0.1,0.3,0.1,0.4,0.1c0.3,0,0.8-0.3,0.9-0.5c0.2-0.5,0.3-1.2,0.3-1.9c0-4.3,0-8.6,0-12.8
			c0-1.1,0.2-2,1.4-2.6c1.4-0.8,3-2.3,2.8-5c-0.1-1.4,0.6-2,1.6-2.6c3.5-1.9,6.8-3.8,10.2-5.8c1.3-0.8,2.4-1.1,4-0.1
			c1,0.6,2.3,0.8,3.5,0.5c1.4-0.3,2.6-1.1,3.3-2.2c1.4-2.1,1.3-4.6-0.3-6.5c-1.4-1.7-3.8-2.3-6.1-1.5c-2.3,0.8-3.5,2.9-3.3,5.4
			c0.1,1-0.2,1.6-1,2.1c-3.8,2.2-7.7,4.4-11.3,6.6c-1.2,0.7-2,0.5-3-0.1c-1.9-1.2-3.9-1.1-5.7,0c-1.3,0.9-2.1,0.5-3,0
			c-2.7-1.6-5.4-3.1-8.2-4.7l-2.6-1.5c-4-2.3-7.9-4.5-11.8-6.7c-1.1-0.6-1.6-1.5-1.5-2.7c0.1-0.6,0-1.3-0.2-1.9
			c-0.7-2.2-3.4-3.9-5.5-3.6c-2.8,0.4-4.8,2.5-4.7,5c0.1,1.9-0.8,2.8-2.3,3.6c-2.7,1.5-5.4,3.1-8.1,4.6l-3,1.7
			c-2.3,1.3-4.5,2.6-6.8,3.9L37.3,23c-0.6,0.3-1.4,0.8-2.4,0c-2-1.4-4.1-1.4-6.2-0.1c-1,0.6-1.8,0.5-2.6,0c-3.1-1.8-6.3-3.6-9.4-5.5
			l-3.2-1.8v-0.3c0.3-1.7,0.3-2.4-0.2-3.5C12,9,9.5,7.9,6.5,8.8c-1.3,0.4-2.4,1.3-3,2.5c-0.7,1.3-0.7,2.8-0.2,4.3
			c0.6,1.6,1.8,2.8,3.3,3.3c1.5,0.5,3.1,0.3,4.5-0.5c1.2-0.7,2.1-0.7,3.2,0c4.1,2.4,7.5,4.4,10.8,6.2c0.8,0.5,1.5,1,1.4,2.4
			c-0.1,2.2,0.8,3.9,2.8,5c1.4,0.8,1.5,1.7,1.5,2.8c0,3.1,0,6.1,0,9.2v16.5c0,0.8,0,1.8-1.2,2.3c-2.2,1.1-3.3,2.9-3.1,5.5
			c0,1-0.5,1.4-1,1.7c-3,1.7-6.1,3.5-9.1,5.2l-3.8,2.2l-0.7-0.5c-0.3-0.2-0.6-0.4-0.9-0.6c-0.9-0.5-1.7-0.8-2.6-0.8L8.1,75.4z
			 M8.1,84.2c-1.9,0-3.4-1.5-3.4-3.4c0-1.9,1.5-3.4,3.4-3.4c0.8,0,1.7,0.4,2.3,1c0.7,0.7,1.1,1.5,1.1,2.4s-0.4,1.7-1.1,2.4
			C9.7,83.8,8.9,84.2,8.1,84.2z M8.1,83.3c0.6,0,1.2-0.3,1.7-0.8c0.6-0.5,0.9-1.2,0.9-1.7c0-0.6-0.3-1.2-0.9-1.7
			c-0.5-0.5-1.1-0.8-1.7-0.8c-1.4,0-2.5,1.1-2.5,2.5S6.7,83.3,8.1,83.3z M31.7,70.9c-1.9,0-3.4-1.5-3.4-3.4c0-1,0.3-1.8,0.9-2.4
			c0.6-0.6,1.5-0.9,2.5-0.9c1,0,1.8,0.4,2.5,1c0.6,0.6,1,1.4,1,2.3c0,0.8-0.4,1.7-1.1,2.4C33.4,70.5,32.5,70.9,31.7,70.9L31.7,70.9z
			 M29.1,67.5c0,1.4,1.1,2.5,2.5,2.5c0.6,0,1.2-0.3,1.7-0.8c0.5-0.5,0.8-1.1,0.8-1.8c0-0.6-0.3-1.2-0.7-1.7
			c-0.5-0.5-1.1-0.8-1.9-0.8c-0.7,0-1.4,0.2-1.8,0.6C29.3,66.2,29.1,66.8,29.1,67.5L29.1,67.5z M102,30.4c0,0-0.1,0-0.2,0
			c-1.8-0.1-3.3-1.5-3.3-3.2c0-1.7,1.6-3.6,3.3-3.6c0.9,0,1.7,0.3,2.4,1c0.7,0.7,1.1,1.7,1.1,2.7c0,0.9-0.4,1.8-1,2.4
			C103.7,30.2,102.8,30.5,102,30.4L102,30.4z M101.9,24.5C101.9,24.5,101.8,24.5,101.9,24.5c-1.3,0-2.6,1.4-2.5,2.7
			c0,1.2,1.1,2.3,2.5,2.3c0.7,0,1.3-0.2,1.8-0.6c0.4-0.4,0.7-1,0.7-1.7c0-0.8-0.3-1.5-0.9-2C103.1,24.7,102.5,24.5,101.9,24.5
			L101.9,24.5z M31.5,30.4c0,0-0.2,0-0.3,0c-0.9-0.1-1.7-0.4-2.2-1c-0.6-0.7-0.9-1.6-0.8-2.6c0.1-1.7,1.9-3.2,3.5-3.1
			c1,0.1,2,0.6,2.7,1.5c0.6,0.7,0.8,1.4,0.7,2.1C34.8,29.4,33.6,30.5,31.5,30.4L31.5,30.4z M31.3,29.6c1.8,0.1,2.6-0.6,2.8-2.4
			c0.1-0.4-0.1-1-0.5-1.4c-0.5-0.6-1.3-1.1-2-1.1c-1.1-0.1-2.4,1-2.5,2.3c-0.1,0.8,0.1,1.5,0.6,2C30.1,29.3,30.7,29.5,31.3,29.6
			L31.3,29.6z M125.4,17c0,0-0.1,0-0.1,0c-1.9,0-3.3-1.4-3.3-3.2c0-0.9,0.3-1.8,1-2.4c0.6-0.6,1.5-1,2.5-1c1,0,1.8,0.3,2.5,0.9
			c0.6,0.6,0.9,1.4,0.9,2.4c0,0.9-0.3,1.7-1,2.3C127.2,16.7,126.4,17,125.4,17L125.4,17z M125.4,11.3c-0.7,0-1.4,0.3-1.8,0.7
			c-0.4,0.4-0.7,1.1-0.7,1.7c0,1.4,1,2.3,2.4,2.3c0,0,0.1,0,0.1,0c0.7,0,1.4-0.2,1.8-0.6c0.4-0.4,0.7-1,0.7-1.7
			c0-0.8-0.2-1.4-0.7-1.8C126.8,11.5,126.2,11.2,125.4,11.3L125.4,11.3z M8.1,17L8.1,17C7,17,6.2,16.6,5.6,16
			c-0.6-0.6-0.9-1.4-0.9-2.4c0-1.9,1.4-3.2,3.4-3.2h0.1c1,0,1.8,0.4,2.5,1c0.6,0.6,1,1.5,0.9,2.3C11.5,15.6,10.1,17,8.1,17z M8,16.1
			c1.4,0,2.6-0.9,2.6-2.3c0-0.6-0.2-1.2-0.7-1.7c-0.5-0.5-1.1-0.8-1.8-0.8H8.1c-1.6,0-2.5,0.9-2.5,2.3c0,0.8,0.2,1.4,0.6,1.8
			C6.6,15.8,7.3,16,8,16.1L8,16.1z M66.8,10.3c-0.9,0-1.7-0.3-2.3-0.9c-0.6-0.6-1-1.5-1-2.5s0.4-1.9,1-2.5c0.6-0.6,1.4-0.9,2.3-0.9
			c1.8,0,3.5,1.7,3.5,3.4C70.3,8.7,68.6,10.3,66.8,10.3z M66.8,4.4c-0.6,0-1.2,0.2-1.6,0.6c-0.5,0.5-0.8,1.1-0.8,1.9
			c0,0.8,0.3,1.4,0.7,1.9c0.4,0.4,1,0.6,1.7,0.6c1.3,0,2.6-1.2,2.6-2.5C69.4,5.7,68.1,4.4,66.8,4.4L66.8,4.4L66.8,4.4z"/>
		<path class="st1" d="M102.5,63.3c-1.7,0-3,0.1-4.4,0c-0.6,0-1.2-0.4-1.6-0.8c-0.5-0.6-0.1-1.3,0.4-1.9c1.6-1.7,3.1-3.3,4.6-5
			c2.4-2.6,4.8-5.1,7.2-7.7c1.5-1.6,2.2-1.5,3.6,0c3.4,3.6,6.9,7.2,10.3,10.9c0.6,0.7,1.3,1.4,1.8,2.2c0.8,1,0.3,2.2-1,2.3
			c-1.1,0.1-2.2,0.1-3.3,0c-0.9,0-1.3,0.3-1.3,1.2c0,0.6,0,1.3,0,1.9c0,14.4,0,28.8,0,43.2c0,0.9-0.1,1.9-0.4,2.7
			c-0.1,0.4-0.8,0.8-1.2,0.8c-0.7,0-1.1-0.5-1.2-1.2c0-0.5,0-0.9,0-1.4c0-15.8,0-31.6,0-47.4c0-0.3,0-0.5,0-0.7
			c0.1-1.6,0.3-1.9,1.9-2c0.6,0,1.2-0.1,2.2-0.1c-3.3-3.5-6.2-6.7-9.4-10.1c-3.1,3.3-6.2,6.6-9.5,10.2c1,0.1,1.7,0.1,2.4,0.1
			c1.1,0.1,1.7,0.6,1.8,1.8c0.1,0.5,0,1.1,0,1.6v46c0,0.6,0,1.3,0,1.9c-0.1,0.8-0.6,1.3-1.3,1.4c-0.6,0.1-1.4-0.7-1.5-1.5
			c-0.1-0.6,0-1.3,0-1.9V63.4"/>
		<path class="st1" d="M103.9,113.6c-0.3,0-0.6-0.1-0.9-0.3c-0.5-0.4-0.9-1-1-1.7c0-0.5,0-1,0-1.4v-0.5v-46c-0.3,0-0.7,0-1,0
			c-1.1,0-2,0-3,0c-0.6,0-1.4-0.4-1.9-1c-0.3-0.4-0.7-1.3,0.4-2.4c0.8-0.8,1.6-1.7,2.3-2.5c0.8-0.8,1.6-1.7,2.3-2.5l1.3-1.4
			c2-2.1,3.9-4.2,5.9-6.3c0.8-0.8,1.4-1.3,2.2-1.3s1.4,0.5,2.1,1.3l2.3,2.4c2.7,2.8,5.3,5.6,8,8.5c0.7,0.7,1.3,1.4,1.8,2.2
			c0.5,0.6,0.6,1.4,0.3,1.9c-0.3,0.6-0.9,1-1.7,1.1c-1,0.1-1.9,0.1-2.8,0.1h-0.5c-0.2,0-0.5,0-0.7,0.1c-0.1,0.1-0.1,0.4-0.1,0.6
			c0,0.4,0,0.9,0,1.3v0.6v5.4c0,12.6,0,25.2,0,37.8c0,1.1-0.1,2-0.4,2.9c-0.2,0.6-1.1,1.1-1.7,1.1h-0.1c-0.8,0-1.5-0.7-1.6-1.6
			c0-0.4,0-0.8,0-1.2V63c0,0,0-0.4,0-0.5c0.1-1.8,0.5-2.3,2.3-2.4c0.4,0,0.8-0.1,1.2-0.1l-8.5-9.1l-8.5,9.1c0.6,0,1,0,1.5,0.1
			c1.3,0.1,2,0.9,2.2,2.2c0,0.4,0,0.8,0,1.2V64v46.4c0,0.5,0,1,0,1.5c-0.1,1-0.8,1.7-1.7,1.8C104,113.7,103.9,113.7,103.9,113.6
			L103.9,113.6z M102.5,62.9h0.4v47.4c0,0.5,0,0.9,0,1.3c0,0.4,0.3,0.8,0.6,1c0.1,0.1,0.3,0.1,0.3,0.1c0.7-0.1,0.9-0.6,1-1
			c0.1-0.5,0-0.9,0-1.4v-0.4V63.4c0-0.4,0-0.8,0-1.1c-0.1-0.9-0.4-1.3-1.4-1.4c-0.5,0-0.9-0.1-1.5-0.1c-0.3,0-0.6,0-0.9,0h-1
			l10.5-11.3l10.4,11.2l-1,0.1c-1,0.1-1.6,0.1-2.2,0.1c-1.3,0.1-1.4,0.1-1.5,1.6c0,0.1,0,0.3,0,0.5v0.2v47.7c0,0.4,0,0.8,0,1.1
			c0,0.4,0.3,0.8,0.7,0.8c0.3,0,0.8-0.3,0.8-0.5c0.3-0.8,0.4-1.6,0.4-2.6c0-12.6,0-25.2,0-37.8v-6c0-0.4,0-0.8,0-1.3
			c0-0.6,0.1-1,0.4-1.3c0.3-0.3,0.8-0.4,1.3-0.4h0.5c0.9,0,1.8,0.1,2.7,0c0.5-0.1,0.8-0.3,0.9-0.5c0.1-0.3,0-0.7-0.2-1.1
			c-0.6-0.7-1.1-1.4-1.8-2.1c-2.7-2.8-5.3-5.6-8-8.5l-2.3-2.4c-0.7-0.7-1.1-1-1.4-1c-0.4,0-0.8,0.3-1.5,1c-2,2.1-3.9,4.2-5.9,6.3
			l-1.3,1.4c-0.8,0.8-1.6,1.7-2.3,2.5c-0.8,0.8-1.6,1.7-2.3,2.5c-0.5,0.5-0.6,1-0.4,1.3c0.2,0.3,0.8,0.6,1.2,0.6
			c0.9,0.1,1.8,0.1,2.8,0c0.4,0,1,0,1.5,0L102.5,62.9z"/>
		<path class="st1" d="M95.1,72.5c-3.3-3.5-6.2-6.7-9.4-10.1c-3,3.2-6,6.5-9.4,10c1,0.1,1.7,0.1,2.3,0.3c1.1,0.2,1.6,0.7,1.7,1.9
			c0,0.4,0,0.8,0,1.2v34.6c0,0.5,0.1,1.1-0.1,1.6c-0.2,0.5-0.7,1-1.3,1.2c-0.3,0.1-1.1-0.4-1.3-0.8c-0.3-0.7-0.3-1.5-0.3-2.3
			c0-10.6,0-21.2,0-31.8v-2.8c-1.3,0-2.3,0-3.4,0c-0.6,0-1.1,0-1.6-0.1c-1-0.2-1.4-1.1-0.8-1.9c0.6-0.8,1.1-1.5,1.8-2.2
			c3.4-3.6,6.7-7.1,10.1-10.7c0.3-0.4,0.6-0.7,1-1c0.9-0.8,1.3-0.8,2.2,0c1.1,1,2.1,2.1,3.1,3.2c3,3.2,6,6.4,8.9,9.6
			c0.6,0.6,1.6,1.2,1.1,2.3c-0.5,1-1.5,0.7-2.3,0.7c-1.1,0.1-2.3,0.2-3.4,0.3c-0.1,1.1-0.2,2.3-0.2,3.5c0,10.2,0,20.4,0,30.6
			c0,0.7,0,1.4-0.1,2.1c-0.2,0.7-0.7,1.3-1.5,1.2c-0.7-0.1-1.3-0.6-1.2-1.4c0-0.5,0-0.9,0-1.4V75.5c0-2.5,0.2-2.6,2.6-2.8
			c0.3,0,0.6-0.1,1.4-0.1"/>
		<path class="st1" d="M92.6,113.6c0,0-0.2,0-0.3,0c-1-0.2-1.7-0.9-1.6-1.9c0-0.3,0-0.5,0-0.8c0-0.2,0-0.4,0-0.6V75.5
			c0-2.7,0.4-3.1,3-3.3c0.1,0,0.3,0,0.5,0l-8.4-9l-8.4,9h0.1c0.5,0,1,0.1,1.4,0.1c1.4,0.2,1.9,0.9,2.1,2.3c0,0.3,0,0.6,0,0.9v0.3
			v34.6c0,0.1,0,0.3,0,0.4c0,0.4,0.1,0.9-0.1,1.4c-0.3,0.6-0.9,1.2-1.6,1.4c-0.6,0.1-1.6-0.5-1.8-1c-0.3-0.8-0.3-1.6-0.3-2.4
			c0-8.2,0-16.5,0-24.7v-9.4h-0.4c-0.9,0-1.7,0-2.5,0h-0.4c-0.4,0-0.9,0-1.4-0.1c-0.6-0.1-1.1-0.5-1.3-1c-0.2-0.5-0.1-1.1,0.3-1.7
			c0.5-0.7,1.1-1.4,1.8-2.2c2.8-2.9,5.5-5.8,8.3-8.8l2-2.1c0.3-0.3,0.6-0.6,0.9-0.9c1.1-1,1.8-1,2.8,0c1.1,1,2.1,2.1,3,3.2
			c3,3.3,6,6.5,8.9,9.7c0.1,0.1,0.2,0.3,0.4,0.4c0.6,0.5,1.4,1.3,0.8,2.5c-0.5,1-1.4,1-2.1,1c-0.2,0-0.4,0-0.6,0
			c-0.7,0.1-1.4,0.1-2.1,0.2l-0.9,0.1v0.6c-0.1,0.8-0.1,1.6-0.1,2.4c0,6.8,0,13.6,0,20.4v10.2v0.3c0,0.6,0,1.2-0.1,1.8
			C94,112.9,93.3,113.5,92.6,113.6L92.6,113.6z M85.8,61.8l10.3,11.1L94.4,73c-0.3,0-0.4,0-0.6,0.1c-1.4,0.1-2.2,0.9-2.2,2.4v35.3
			c0,0.3,0,0.6,0,0.9c0,0.7,0.4,0.9,0.9,1c0.7,0,1-0.7,1-0.9c0.1-0.5,0.1-1.1,0.1-1.7v-0.4V99.6c0-6.8,0-13.6,0-20.4
			c0-0.8,0.1-1.7,0.1-2.4c0-0.4,0-0.7,0.1-1v-0.4l1.7-0.1c0.7-0.1,1.4-0.1,2.1-0.2c0.2,0,0.4,0,0.6,0c0.7,0,1,0,1.3-0.5
			c0.3-0.6,0-0.9-0.6-1.4c-0.1-0.1-0.3-0.3-0.4-0.4c-3-3.2-5.9-6.4-8.9-9.6c-1-1.1-2-2.2-3.1-3.2c-0.7-0.6-0.8-0.6-1.6,0
			c-0.3,0.3-0.6,0.5-0.8,0.8l-2,2.1c-2.8,2.9-5.5,5.8-8.3,8.8c-0.7,0.8-1.3,1.5-1.8,2.1c-0.2,0.3-0.3,0.6-0.1,0.8
			c0.1,0.2,0.3,0.4,0.7,0.5s0.7,0.1,1.1,0.1h0.4c0.8,0,1.6,0,2.4,0H78v10.3c0,8.2,0,16.5,0,24.7c0,0.7,0,1.5,0.3,2.1
			c0.1,0.2,0.6,0.5,0.7,0.5c0.3-0.1,0.7-0.5,0.9-0.9c0.1-0.2,0.1-0.6,0-0.9c0-0.2,0-0.4,0-0.5V75.4c0-0.3,0-0.5,0-0.8
			c-0.1-1-0.4-1.3-1.3-1.5c-0.4-0.1-0.8-0.1-1.3-0.1c-0.3,0-0.6,0-1-0.1l-0.9-0.1L85.8,61.8z"/>
		<path class="st1" d="M70.5,84.7c-1.8-2-3.3-3.6-4.8-5.3c-1.3-1.4-2.7-2.8-4-4.3c-0.6-0.6-1.1-0.8-1.7-0.1
			c-2.8,3.1-5.7,6.2-8.8,9.6c1.1,0,1.8,0,2.6,0c1.4,0.1,1.7,0.4,1.8,1.9c0,1.7,0,3.3,0,4.9c0,6.2,0,12.5,0,18.7c0,0.5,0,1.1,0,1.6
			c0,0.9-0.6,1.3-1.3,1.4c-0.8,0.1-1.3-0.5-1.5-1.3c-0.1-0.6-0.1-1.2-0.1-1.9c0-6.6,0-13.2,0-19.8c0-0.3,0-0.6,0-0.9
			c0-1.7,0-1.7-1.9-1.8c-0.8,0-1.6-0.2-2.3-0.2c-0.7-0.1-1.4-0.1-1.8-0.9c-0.4-0.8,0.3-1.3,0.7-1.8c1-1.1,2.1-2.3,3.1-3.4
			c2.6-2.8,5.2-5.6,7.8-8.4c0.4-0.5,0.9-0.9,1.3-1.3c1-0.9,1.4-0.9,2.4,0c1,1,2,2,2.9,3c3,3.3,6,6.5,9,9.8c0.6,0.6,1.5,1.1,1.1,2.2
			c-0.4,1.1-1.6,0.8-2.4,0.9c-1.1,0.1-2.1,0.1-3.3,0.2c-0.1,1.1-0.3,2.3-0.3,3.4c0,6.5,0,12.9,0,19.4c0,0.6,0.1,1.3-0.2,1.8
			c-0.2,0.5-0.9,1-1.3,1.1c-0.7,0.1-1.3-0.4-1.4-1.3c0-0.5,0-0.9,0-1.4V87.6c0-0.5,0-0.9,0-1.4c0-0.9,0.5-1.4,1.4-1.5
			C68.4,84.7,69.3,84.7,70.5,84.7"/>
		<path class="st1" d="M54.1,113.6c-0.9,0-1.5-0.6-1.8-1.6c-0.1-0.5-0.1-1-0.1-1.5V110c0-6.6,0-13.2,0-19.8v-0.3c0-0.2,0-0.4,0-0.6
			c0-0.8-0.5-1.3-1.4-1.3c-0.5,0-0.9-0.1-1.4-0.1c-0.3,0-0.7-0.1-1-0.1c-0.8-0.1-1.7-0.1-2.1-1.1c-0.4-1,0.2-1.6,0.6-2.1l0.2-0.2
			c1-1.1,2.1-2.3,3.1-3.5c2.6-2.8,5.2-5.6,7.8-8.4l0.1-0.1c0.4-0.4,0.8-0.9,1.3-1.3c1.2-1.1,1.9-1.1,3,0c1,1,2,2,3,3.1
			c3,3.3,6,6.5,9.1,9.8c0.1,0.1,0.2,0.2,0.3,0.3c0.5,0.5,1.3,1.2,0.8,2.3c-0.5,1.2-1.6,1.2-2.3,1.1c-0.2,0-0.4,0-0.5,0l-2.8,0.2
			c0,0.2,0,0.5-0.1,0.7c-0.1,0.8-0.2,1.5-0.2,2.3c0,4.2,0,8.4,0,12.6v6.7v0.4c0,0.5,0,1.1-0.2,1.7c-0.3,0.6-1,1.3-1.7,1.3
			c-0.5,0.1-0.9-0.1-1.3-0.4c-0.4-0.3-0.6-0.8-0.6-1.3c0-0.5,0-0.9,0-1.4V87.5c0-0.5,0-0.9,0-1.4c0-1.2,0.7-1.9,1.9-1.9
			c0.6,0,1.1,0,1.8,0h0c-1.5-1.7-2.8-3.1-4.1-4.5L64,78.2c-0.9-0.9-1.7-1.9-2.6-2.8C61.2,75.1,61,75,60.9,75c0,0-0.4,0.2-0.5,0.3
			c-2,2.2-4,4.4-6.1,6.7l-2,2.2c0.6,0,1.1,0,1.6,0c1.7,0.1,2.1,0.6,2.2,2.3c0,1.1,0,2.3,0,3.5v21.7c0,1-0.7,1.7-1.7,1.8
			C54.2,113.5,54.1,113.5,54.1,113.6L54.1,113.6z M60.9,71.1c-0.2,0-0.5,0.2-0.9,0.6c-0.4,0.4-0.8,0.8-1.2,1.2L58.7,73
			c-2.6,2.8-5.2,5.6-7.8,8.4c-1.1,1.1-2.1,2.3-3.1,3.4L47.5,85c-0.5,0.5-0.6,0.7-0.4,1.1c0.2,0.5,0.6,0.5,1.4,0.6
			c0.4,0,0.7,0.1,1,0.1c0.4,0,0.9,0.1,1.3,0.1c2.1,0.1,2.3,0.3,2.3,2.2c0,0.2,0,0.4,0,0.6v0.3c0,6.6,0,13.2,0,19.8v0.4
			c0,0.5,0,0.9,0.1,1.3c0,0.1,0.3,0.9,0.9,0.9c0,0,0.1,0,0.1,0c0.3,0,0.9-0.2,0.9-1v-1.6V89.9c0-1.1,0-2.3,0-3.4
			c0-1.3-0.2-1.4-1.3-1.4c-0.5,0-0.9,0-1.5,0c-0.3,0-0.6,0-1,0h-1l3.4-3.7c2.1-2.3,4.1-4.5,6.1-6.7c0.4-0.4,0.8-0.6,1.2-0.6
			c0.4,0,0.8,0.2,1.3,0.7c0.9,0.9,1.7,1.9,2.6,2.8l1.4,1.5c1.4,1.5,2.7,3,4.3,4.7l1.2,1.3h-2.1c-0.7,0-1.2,0-1.8,0c-0.7,0-1,0.3-1,1
			c0,0.5,0,0.9,0,1.4v22.9c0,0.5,0,0.9,0,1.4c0,0.3,0.1,0.5,0.3,0.7c0.1,0.1,0.3,0.2,0.6,0.2c0.3,0,0.8-0.4,1-0.8
			c0.1-0.3,0.1-0.8,0.1-1.3v-0.4v-6.7c0-4.2,0-8.4,0-12.6c0-0.8,0.1-1.6,0.2-2.4c0-0.4,0.1-0.7,0.1-1.1v-0.4l3.7-0.2
			c0.2,0,0.4,0,0.6,0c0.8,0,1.2,0,1.4-0.6c0.2-0.5,0-0.8-0.6-1.3c-0.1-0.1-0.3-0.3-0.4-0.4c-3-3.3-6-6.5-9-9.8c-1-1-1.9-2-2.9-3
			C61.3,71.3,61.1,71.1,60.9,71.1L60.9,71.1z"/>
	</g>
</g>
</svg>
