<?xml version="1.0" encoding="UTF-8"?>
<svg id="Calque_2" data-name="Calque 2" xmlns="http://www.w3.org/2000/svg" viewBox="0 0 25.69 25.31">
  <defs>
    <style>
      .cls-1 {
        fill: #13100d;
        stroke-width: 0px;
      }
    </style>
  </defs>
  <g id="Calque_1-2" data-name="Calque 1">
    <g>
      <path class="cls-1" d="M6.08,18.89c-.49-.12-.97-.06-1.34.33-.36.38-.4.83-.24,1.31.26.77.85,1.12,1.34,1.22.95.15,1.39-.12,1.61-.65.17-.41.12-.82-.07-1.2-.27-.54-.73-.87-1.3-1.02Z"/>
      <path class="cls-1" d="M18.5,21.25c-.54-.28-1.14-.41-1.72-.33-1.21.16-2.22.68-2.72,1.89-.27.65-.32,1.29.17,1.87.32.38.75.55,1.19.59,1.59.25,2.95-.44,3.7-1.67.62-1.02.13-1.95-.62-2.34Z"/>
      <path class="cls-1" d="M17.1,16.23c.29-1.99-.67-3.87-2.29-4.84-.72-.46-1.53-.7-2.43-.7-1.19,0-2.37-.04-3.52-.41-.83-.26-1.56-.69-2.25-1.19-.5-.37-.9-.84-1.24-1.38-.6-.95-.96-1.95-.92-3.08.01-.36.02-.72-.11-1.07-.25-.66-.86-.96-1.54-.75-.5.15-.91.45-1.31.78C.59,4.34.08,5.31,0,6.48c-.02.24.02.5.09.73.19.56.8.77,1.3.77.37,0,.75-.02,1.11.05.7.14,1.33.45,1.9.88,1.23.93,2.06,2.14,2.58,3.58.31.86.5,1.75.54,2.66-.2,2.5,1.58,4.77,4.1,5.14,2.63.39,5.08-1.43,5.47-4.06Z"/>
      <path class="cls-1" d="M5.76,13.72c.17-1.21-.18-2.25-1.07-3.07-1.15-1.06-2.73-.66-3.44.38-.45.66-.71,1.39-.64,2.22.08,1.05.42,1.96,1.34,2.58.98.66,2.11.49,2.85-.23.53-.51.88-1.13.97-1.88Z"/>
      <path class="cls-1" d="M1.53,19.35c-.19-.09-.37-.13-.54,0-.16.12-.17.32-.14.49.1.5.36.89.79,1.16.08.05.18.06.21.07.41.06.6-.14.56-.51-.07-.56-.36-.97-.88-1.21Z"/>
      <path class="cls-1" d="M23.76,12.41c-.42-.24-.89-.34-1.39-.37-.45-.02-.91-.06-1.36-.12-.86-.11-1.65-.42-2.39-.87-.89-.53-1.65-1.2-2.33-1.98-1.02-1.16-1.64-2.52-1.86-4.05-.14-.99-.65-1.7-1.49-2.17-1.22-.7-2.46-.64-3.67.05-1.25.71-1.88,2.19-1.45,3.48.35,1.06,1.12,1.72,2.21,1.99.4.1.82.14,1.23.18,1.34.14,2.57.59,3.69,1.35.94.64,1.72,1.44,2.33,2.39.58.91.95,1.91,1.06,2.99.05.48.06.96.08,1.45.01.27.02.55.04.82,0,.1.01.2.03.3.04.18.09.34.16.49.58,1.37,2.08,1.85,3.24,1.81,1.94-.06,3.2-1.38,3.68-3.52.45-1.97-.54-3.63-1.82-4.21Z"/>
      <path class="cls-1" d="M5.66,2.64c.2.11.43.21.65.23.86.06,1.61-.2,2.23-.8.06-.06.13-.13.18-.2.17-.21.29-.45.33-.73.06-.37-.03-.64-.27-.85-.08-.07-.18-.13-.29-.18-.27-.13-.54-.09-.81-.11-.97-.05-2.09.73-2.35,1.65-.11.39,0,.81.32.99Z"/>
      <path class="cls-1" d="M20.64,8.36c.26,0,.45.03.64.02.9-.04,1.56-.72,1.67-1.46.14-.93-.06-1.75-.62-2.5-.61-.81-1.35-1.36-2.39-1.49-.93-.11-1.9.45-2.09,1.47-.1.53-.06,1.03.11,1.55.44,1.36,1.41,2.08,2.68,2.41Z"/>
      <path class="cls-1" d="M18.66,18.33c-.06-.15-.12-.32-.16-.49.02.17.07.34.16.49Z"/>
      <path class="cls-1" d="M18.43,16.72c-.03.42,0,.79.07,1.12-.01-.1-.02-.2-.03-.3-.02-.27-.03-.55-.04-.82Z"/>
    </g>
  </g>
</svg>