<?xml version="1.0" encoding="UTF-8"?>
<svg id="Calque_2" data-name="Calque 2" xmlns="http://www.w3.org/2000/svg" viewBox="0 0 140 140">
  <defs>
    <style>
      .cls-1 {
        fill: #99cfe2;
      }

      .cls-1, .cls-2 {
        stroke-width: 0px;
      }

      .cls-2 {
        fill: #121628;
      }
    </style>
  </defs>
  <g id="Calque_2-2" data-name="Calque 2">
    <g>
      <path class="cls-1" d="M70,140C31.53,140,0,108.47,0,70S31.53,0,70,0s70,31.53,70,70-31.53,70-70,70ZM70,3.78C33.42,3.78,4.41,33.42,4.41,69.37s29.64,65.59,65.59,65.59,65.59-29.64,65.59-65.59S105.95,3.78,70,3.78Z"/>
      <path class="cls-2" d="M64.01,54.99l-3.13-8.86c.45-.23.85-.55,1.17-.95.61-.76.89-1.71.79-2.68s-.58-1.84-1.34-2.45c-.76-.61-1.71-.89-2.68-.79-.97.1-1.84.58-2.45,1.34-.61.76-.89,1.71-.79,2.68.1.97.58,1.84,1.34,2.45.66.53,1.45.81,2.28.81.13,0,.27,0,.4-.02.12-.01.23-.05.34-.07l3.14,8.87.94-.33ZM59.48,45.53c-.7.07-1.4-.13-1.95-.57-.55-.44-.9-1.08-.97-1.78-.08-.7.13-1.4.57-1.95.44-.55,1.08-.9,1.78-.97.1-.01.19-.02.29-.02.6,0,1.18.2,1.66.59.55.44.9,1.08.97,1.78s-.13,1.4-.57,1.95c-.44.55-1.08.9-1.78.97Z"/>
      <path class="cls-2" d="M58.38,80.86l-.73-.68-8.17,8.84c-1.9-1.64-4.77-1.63-6.64.13-.97.91-1.53,2.14-1.57,3.48-.04,1.33.44,2.6,1.35,3.57.91.97,2.15,1.53,3.48,1.57.05,0,.11,0,.16,0,1.27,0,2.48-.48,3.41-1.35.97-.91,1.53-2.14,1.57-3.48.04-1.17-.35-2.28-1.06-3.2l8.21-8.89ZM48.98,95.69c-.78.73-1.81,1.09-2.85,1.08-1.06-.03-2.05-.48-2.78-1.26-.73-.78-1.11-1.79-1.08-2.85.03-1.06.48-2.05,1.26-2.78.77-.72,1.75-1.08,2.73-1.08,1.06,0,2.12.42,2.91,1.26.73.78,1.11,1.79,1.08,2.85-.03,1.06-.48,2.05-1.26,2.78Z"/>
      <path class="cls-2" d="M56.7,60.59l-8.22-5.07c.52-1.02.82-2.17.82-3.39,0-4.13-3.36-7.48-7.48-7.48s-7.48,3.36-7.48,7.48,3.36,7.48,7.48,7.48c2.55,0,4.8-1.28,6.15-3.23l8.21,5.07.53-.85ZM41.81,58.61c-3.58,0-6.48-2.91-6.48-6.48s2.91-6.48,6.48-6.48,6.48,2.91,6.48,6.48-2.91,6.48-6.48,6.48Z"/>
      <path class="cls-2" d="M110.29,57.95c-1.55,0-2.99.47-4.19,1.29l-6.94-6.08c.65-.89,1.05-1.98,1.05-3.16,0-2.96-2.4-5.36-5.36-5.36s-5.36,2.4-5.36,5.36c0,1.05.32,2.03.84,2.86l-8.12,6.55.63.78,8.11-6.54c.98,1.05,2.36,1.71,3.9,1.71,1.41,0,2.68-.56,3.64-1.45l6.81,5.96c-1.53,1.37-2.5,3.36-2.5,5.57,0,4.13,3.36,7.48,7.48,7.48s7.48-3.36,7.48-7.48-3.36-7.48-7.48-7.48ZM94.85,54.36c-2.4,0-4.36-1.96-4.36-4.36s1.96-4.36,4.36-4.36,4.36,1.96,4.36,4.36-1.96,4.36-4.36,4.36ZM110.29,71.92c-3.58,0-6.48-2.91-6.48-6.48s2.91-6.48,6.48-6.48,6.48,2.91,6.48,6.48-2.91,6.48-6.48,6.48Z"/>
      <path class="cls-1" d="M69.91,87.2c-9.66,0-17.52-7.86-17.52-17.52s7.86-17.52,17.52-17.52,17.52,7.86,17.52,17.52-7.86,17.52-17.52,17.52ZM69.91,55.16c-8.01,0-14.52,6.51-14.52,14.52s6.51,14.52,14.52,14.52,14.52-6.51,14.52-14.52-6.51-14.52-14.52-14.52Z"/>
    </g>
  </g>
</svg>