<?xml version="1.0" encoding="UTF-8"?>
<svg id="Calque_2" data-name="Calque 2" xmlns="http://www.w3.org/2000/svg" viewBox="0 0 140 140">
  <defs>
    <style>
      .cls-1 {
        fill: #99cfe2;
      }

      .cls-1, .cls-2 {
        stroke-width: 0px;
      }

      .cls-2 {
        fill: #121628;
      }
    </style>
  </defs>
  <g id="Calque_2-2" data-name="Calque 2">
    <g>
      <path class="cls-1" d="M70,140C31.53,140,0,108.47,0,70S31.53,0,70,0s70,31.53,70,70-31.53,70-70,70ZM70,3.78C33.42,3.78,4.41,33.42,4.41,69.37s29.64,65.59,65.59,65.59,65.59-29.64,65.59-65.59S105.95,3.78,70,3.78Z"/>
      <path class="cls-2" d="M70,66.6c-10.59,0-19.21-8.62-19.21-19.21s8.62-19.21,19.21-19.21,19.21,8.62,19.21,19.21-8.62,19.21-19.21,19.21ZM70,29.17c-10.04,0-18.21,8.17-18.21,18.21s8.17,18.21,18.21,18.21,18.21-8.17,18.21-18.21-8.17-18.21-18.21-18.21Z"/>
      <path class="cls-2" d="M70,110.57c-16.25,0-30.23-11.03-34.01-26.81l-.03-.12.03-.12c2.29-9.62,8.59-17.85,17.28-22.6l.44-.24.24.44c3.19,5.92,9.33,9.6,16.05,9.6s12.86-3.68,16.05-9.6l.24-.44.44.24c8.69,4.74,14.99,12.98,17.28,22.6l.03.12-.03.12c-3.78,15.79-17.76,26.81-34.01,26.81ZM36.99,83.64c3.71,15.27,17.27,25.93,33.01,25.93s29.3-10.66,33.01-25.93c-2.21-9.13-8.14-16.97-16.32-21.59-3.42,5.99-9.77,9.69-16.68,9.69s-13.26-3.7-16.68-9.69c-8.18,4.62-14.11,12.46-16.32,21.59Z"/>
      <path class="cls-1" d="M55.23,84.3c-.81,0-1.55.23-2.21.6-1.8-2.23-4.87-7.02-4.02-12.95,1.18-8.28,5.11-11.39,5.15-11.42l-.61-.8-.6-.8c-.19.14-4.62,3.57-5.93,12.73-.97,6.82,2.48,12.14,4.5,14.59-.5.72-.79,1.6-.79,2.54,0,2.48,2.02,4.5,4.5,4.5s4.5-2.02,4.5-4.5-2.02-4.5-4.5-4.5ZM55.23,91.3c-1.38,0-2.5-1.12-2.5-2.5,0-.5.15-.96.41-1.36l.57-.61c.42-.33.95-.54,1.53-.54,1.38,0,2.5,1.12,2.5,2.5s-1.12,2.5-2.5,2.5Z"/>
      <path class="cls-1" d="M92.38,67.65c-.17-7.19-5.91-9.65-6.15-9.75l-.77,1.85c.2.08,4.79,2.1,4.92,7.95.12,5-3.37,8.7-4.67,9.9-5.35-4.45-15.89,4.17-16.35,4.55-.43.35-.48.98-.13,1.41.35.42.98.49,1.41.13.08-.07.19-.15.28-.23l.97,1.44-.69.45c-.23.15-.29.46-.14.69.1.15.26.23.42.23.09,0,.19-.03.27-.08l2.01-1.32c.23-.15.29-.46.14-.69-.15-.23-.46-.29-.69-.14l-.7.46-1-1.49c3.32-2.51,10.19-6.63,13.16-3.66.63.63.94,1.41.93,2.38-.03,3.54-4.04,8.15-5.62,9.83l-1.51-1.37.56-.62c.19-.21.17-.52-.04-.71-.21-.18-.52-.17-.71.04l-1.61,1.79c-.19.21-.17.52.04.71.1.09.22.13.33.13.14,0,.27-.06.37-.17l.55-.61,1.49,1.36c-.06.06-.11.11-.11.11-.4.38-.41,1.02-.02,1.41.2.2.46.3.72.3s.5-.09.7-.28c.28-.27,6.83-6.68,6.87-11.9,0-.96-.22-1.82-.63-2.59,1.47-1.32,5.55-5.53,5.41-11.51Z"/>
    </g>
  </g>
</svg>