<?xml version="1.0" encoding="UTF-8"?>
<svg id="Calque_2" data-name="Calque 2" xmlns="http://www.w3.org/2000/svg" viewBox="0 0 140 140">
  <defs>
    <style>
      .cls-1 {
        fill: none;
        stroke: #121628;
        stroke-miterlimit: 10;
      }

      .cls-2 {
        fill: #172659;
      }

      .cls-2, .cls-3, .cls-4, .cls-5 {
        stroke-width: 0px;
      }

      .cls-3 {
        fill: #d60000;
      }

      .cls-4 {
        fill: #fff;
      }

      .cls-5 {
        fill: #121628;
      }
    </style>
  </defs>
  <g id="Calque_2-2" data-name="Calque 2">
    <g>
      <g>
        <path class="cls-2" d="M58.74,36.7c-.87.16-1.75.33-2.6.61-.96.31-1.57.86-1.49,1.98.03.44-.09.9-.19,1.34-.38,1.74-1.23,2.24-2.89,1.59-2.06-.81-4.01-1.81-5.63-3.38-.84-.81-1.74-1.56-2.79-2.09-1.3-.65-2.01-.26-2.31,1.15-.32,1.5.19,2.82.86,4.09.65,1.25,1.26,2.5,1.13,3.96,0,.19,0,.39,0,.58-.03,1.63-.68,2.13-2.29,1.82-1.06-.21-2.04-.63-3-1.11-1.16-.57-2.31-1.18-3.48-1.75-.55-.27-1.14-.52-1.77-.41-2.43.41-4.85.83-7.27,1.27-.45.08-.91.17-1.24.51-1.49,1.52-1.24,3.8.52,4.96,1.27.84,2.56,1.66,3.83,2.49,2.96,1.93,5.88,3.92,9.23,5.17.54.2,1.04.53,1.5.88.91.69,1.17,1.57.84,2.67-.13.43-.3.86-.5,1.26-.34.67-.31,1.32.09,1.94.97,1.5,2.16,2.79,3.9,3.36.95.31,1.28.83,1.22,1.78-.13,1.9.17,3.75.74,5.56.21.67.23,1.34.14,2.02-.37,2.6-.71,5.2-1.16,7.78-.56,3.19-.99,6.47-4.2,8.37-.71.42-.73,1.16-.35,1.9.55,1.07,1.39,1.87,2.33,2.57,2.28,1.7,4.86,2.84,7.42,4.02,1.59.73,3.17.75,4.84.55,1.52-.18,3.03-.44,4.57-.47V36.7Z"/>
        <path class="cls-3" d="M84.78,99.68c1.89.85,3.7,1.87,5.71,2.45.71.21,1.42.28,2.02-.25,2.65-2.34,5.6-4.31,8.31-6.58.85-.71,1.68-1.44,2.36-2.31.63-.81.46-1.3-.52-1.54-.69-.17-1.41-.22-2.1-.36-1.86-.37-2.51-1.29-2.28-3.17.17-1.43,0-2.77-.97-3.94-1.14-1.37-.88-2.29.8-2.91.79-.29,1.62-.47,2.4-.78.84-.34.96-.79.41-1.51-.83-1.07-1.35-2.29-1.76-3.56-.6-1.88-1.14-3.78-1.72-5.67-.44-1.44-.45-1.44-1.97-1.27-.35.04-.71.07-1.07.06-.53,0-1.19.21-1.51-.37-.31-.55.15-1.05.41-1.51.24-.42.53-.82.82-1.21,1.42-1.9,3.03-3.64,4.76-5.25.53-.49.83-1.03,1-1.72.69-2.77,1.42-5.52,2.11-8.29.29-1.16.93-2.06,1.9-2.72.56-.38,1.16-.71,1.73-1.09.32-.21.77-.35.74-.82-.03-.5-.49-.64-.87-.81-1.7-.75-3.5-1.16-5.31-1.55-2.68-.58-5.41-.9-8.02-1.92-3.88-1.52-7.32-3.8-10.88-5.9v63.08c1.19.35,2.33.88,3.47,1.39Z"/>
        <path class="cls-3" d="M117.77,98.34c.06-1.42.07-2.56-.2-3.67-.32-1.34-1.47-1.69-2.51-.78-.34.3-.64.65-.9,1.01-.51.72-1.05,1.4-1.75,1.94-2.04,1.54-3.38,3.4-4.08,6.01-.81,2.98-.37,5.47,1.28,7.91.69,1.01,1.29,1.27,2.48,1.01,1.09-.24,2.07-.73,2.98-1.37,1.8-1.26,1.88-1.64.92-3.6-.63-1.27-1-2.62.14-3.79,1.37-1.41,1.95-3.02,1.65-4.66Z"/>
        <path class="cls-4" d="M59.69,103.65c.85.05,1.59.25,2.02,1.09.29.56.81.92,1.32,1.27,1.83,1.21,3.87,1.96,5.93,2.65.35.12.7.08,1.04-.06,1.15-.45,2.27-.96,3.36-1.53.67-.35.97-.79.9-1.62-.15-1.84.26-3.61,1.16-5.24,1.03-1.88,2.49-2.58,4.61-2.22.44.07.86.18,1.28.3v-63.08c-.21-.12-.42-.25-.63-.37-3-1.74-5.55-3.88-7.41-6.84-.67-1.06-1.53-2.02-2.52-2.82-.51-.41-1.05-.82-1.77-.53-1.08.43-2.18.85-3.23,1.35-1.44.7-2.19,1.84-2.14,3.5.04,1.23.03,2.46-.16,3.69-.35,2.34-.8,2.81-3.14,3.23-.53.09-1.06.18-1.58.28v66.95c.31,0,.63-.02.94,0Z"/>
      </g>
      <path class="cls-5" d="M70,140C31.53,140,0,108.47,0,70S31.53,0,70,0s70,31.53,70,70-31.53,70-70,70ZM70,3.78C33.42,3.78,4.41,33.42,4.41,69.37s29.64,65.59,65.59,65.59,65.59-29.64,65.59-65.59S105.95,3.78,70,3.78Z"/>
      <g>
        <path class="cls-1" d="M42.83,46.51c.14-1.47-.47-2.72-1.13-3.96-.67-1.28-1.17-2.59-.86-4.09.3-1.41,1.01-1.8,2.31-1.15,1.05.53,1.96,1.28,2.79,2.09,1.61,1.57,3.57,2.57,5.63,3.38,1.66.65,2.51.16,2.89-1.59.1-.44.22-.9.19-1.34-.07-1.12.54-1.67,1.49-1.98,1.36-.44,2.78-.64,4.18-.89,2.34-.41,2.79-.89,3.14-3.23.19-1.23.2-2.46.16-3.69-.05-1.66.7-2.8,2.14-3.5,1.05-.51,2.14-.92,3.23-1.35.72-.29,1.26.12,1.77.53.99.8,1.85,1.75,2.52,2.82,1.86,2.96,4.41,5.1,7.41,6.84,3.78,2.2,7.39,4.66,11.51,6.27,2.6,1.02,5.33,1.34,8.02,1.92,1.81.39,3.61.8,5.31,1.55.38.17.84.32.87.81.03.47-.43.61-.74.82-.57.37-1.17.7-1.73,1.09-.97.67-1.61,1.57-1.9,2.72-.69,2.77-1.42,5.52-2.11,8.29-.17.68-.47,1.22-1,1.72-1.73,1.62-3.34,3.35-4.76,5.25-.29.39-.58.79-.82,1.21-.27.46-.72.96-.41,1.51.32.58.98.37,1.51.37.36,0,.71-.02,1.07-.06,1.52-.16,1.53-.16,1.97,1.27.57,1.89,1.11,3.79,1.72,5.67.41,1.27.92,2.48,1.76,3.56.55.71.43,1.17-.41,1.51-.78.32-1.61.49-2.4.78-1.69.62-1.95,1.54-.81,2.91.97,1.16,1.14,2.51.97,3.94-.23,1.88.42,2.8,2.28,3.17.7.14,1.41.19,2.1.36.98.24,1.15.73.52,1.54-.68.87-1.52,1.6-2.36,2.31-2.71,2.27-5.66,4.23-8.31,6.58-.61.54-1.31.46-2.02.25-2.01-.58-3.82-1.6-5.71-2.45-1.54-.69-3.07-1.4-4.75-1.69-2.12-.36-3.57.33-4.61,2.22-.9,1.63-1.3,3.4-1.16,5.24.07.83-.23,1.27-.9,1.62-1.09.57-2.21,1.08-3.36,1.53-.35.14-.69.18-1.04.06-2.06-.7-4.1-1.44-5.93-2.65-.52-.34-1.03-.71-1.32-1.27-.44-.84-1.17-1.05-2.02-1.09-1.86-.1-3.68.25-5.51.47-1.67.2-3.25.18-4.84-.55-2.57-1.18-5.15-2.31-7.42-4.02-.94-.7-1.78-1.5-2.33-2.57-.38-.74-.35-1.48.35-1.9,3.21-1.9,3.64-5.17,4.2-8.37.45-2.58.79-5.18,1.16-7.78.1-.67.08-1.35-.14-2.02-.57-1.81-.86-3.66-.74-5.56.06-.95-.27-1.47-1.22-1.78-1.74-.57-2.93-1.86-3.9-3.36-.4-.62-.43-1.26-.09-1.94.2-.4.37-.83.5-1.26.33-1.1.07-1.98-.84-2.67-.46-.35-.97-.68-1.5-.88-3.34-1.25-6.27-3.23-9.23-5.17-1.27-.83-2.56-1.65-3.83-2.49-1.77-1.16-2.01-3.44-.52-4.96.33-.34.79-.43,1.24-.51,2.42-.43,4.85-.86,7.27-1.27.63-.11,1.22.14,1.77.41,1.16.57,2.31,1.17,3.48,1.75.96.47,1.94.9,3,1.11,1.61.31,2.26-.19,2.29-1.82,0-.19,0-.39,0-.58Z"/>
        <path class="cls-1" d="M117.77,98.91c.31,1.65-.27,3.25-1.65,4.66-1.14,1.17-.77,2.52-.14,3.79.97,1.96.88,2.34-.92,3.6-.91.64-1.89,1.13-2.98,1.37-1.19.26-1.79,0-2.48-1.01-1.65-2.44-2.09-4.92-1.28-7.91.7-2.6,2.04-4.46,4.08-6.01.71-.53,1.24-1.22,1.75-1.94.26-.37.56-.72.9-1.01,1.04-.91,2.18-.55,2.51.78.27,1.11.26,2.25.2,3.67Z"/>
      </g>
    </g>
  </g>
</svg>