<svg width="29" height="29" viewBox="0 0 29 29" fill="none" xmlns="http://www.w3.org/2000/svg">
<path d="M8.28584 16.9786C7.90342 16.851 7.64848 16.7233 7.39353 16.5956C7.13859 16.468 7.01112 16.3403 6.88364 16.2127C6.50123 15.8297 6.37375 15.4467 6.24628 15.0637C6.11881 14.8084 6.11881 14.5531 6.11881 14.2978V14.1701C6.11881 13.9148 5.86386 13.9148 5.73639 13.9148C5.48145 14.0425 5.48145 14.1701 5.48145 14.2978C5.48145 14.8084 5.48145 15.3191 5.73639 15.8297C5.86386 15.9573 5.86386 16.2127 5.99133 16.3403C6.24628 16.7233 6.6287 17.1063 7.13859 17.2339C7.39353 17.3616 7.52101 17.3616 7.77595 17.4893C7.90342 17.4893 7.90342 17.6169 8.0309 17.6169C8.15837 17.6169 8.28584 17.6169 8.28584 17.6169C8.41331 17.4893 8.41331 17.3616 8.41331 17.2339C8.41331 17.1063 8.41331 17.1063 8.28584 16.9786Z" fill="#121628"/>
<path d="M14.1495 28.3404C6.37363 28.3404 0 21.9574 0 14.1702C0 6.38298 6.37363 0 14.1495 0C21.9253 0 28.2989 6.38298 28.2989 14.1702C28.4264 21.9574 22.0527 28.3404 14.1495 28.3404ZM14.1495 0.765957C6.75604 0.765957 0.892307 6.76596 0.892307 14.0426C0.892307 21.4468 6.88352 27.3192 14.1495 27.3192C21.5429 27.3192 27.4066 21.3191 27.4066 14.0426C27.5341 6.76596 21.5429 0.765957 14.1495 0.765957Z" fill="#121628"/>
<path d="M25.877 9.82974L25.622 9.70208C25.4945 9.57442 25.2396 9.57442 25.1121 9.44676C24.2198 9.19144 23.3275 9.06378 22.1803 9.06378C20.2682 9.06378 18.866 9.3191 17.7187 9.82974C16.3165 10.468 15.4242 11.4893 14.9143 12.7659C14.5319 11.9999 14.022 11.3617 13.3846 10.7234C12.4923 9.82974 11.4726 9.06378 10.1978 8.29782C11.7275 8.80846 13.1297 9.57442 14.1495 10.851L14.6594 11.3617L14.7868 10.468C14.7868 10.3404 14.7868 10.2127 14.7868 9.9574C14.7868 8.29782 13.8945 7.02122 12.3649 6.38293C11.3451 5.87229 10.1978 5.74463 8.66816 5.74463C7.64838 5.74463 6.88355 5.87229 6.24619 5.99995C6.11871 5.99995 5.99124 6.12761 5.86377 6.12761C5.86377 6.12761 5.7363 6.12761 5.7363 6.25527L5.60882 6.38293C5.60882 6.38293 5.22641 6.76591 5.60882 6.76591L5.7363 6.89357C6.50113 7.27654 7.01102 7.91484 7.52091 8.93612C7.64838 9.19144 7.77586 9.44676 7.77586 9.57442C7.90333 9.82973 8.0308 10.2127 8.15827 10.468C8.28575 10.7234 8.41322 10.851 8.54069 11.1063C8.0308 11.1063 7.52091 11.1063 7.01102 11.3617C6.75608 11.4893 6.37366 11.617 6.24619 11.7446C4.97146 12.6382 4.3341 14.1702 4.84399 15.8297C4.97146 16.2127 5.09893 16.468 5.22641 16.7234C5.60882 17.3617 6.11871 17.7446 6.88355 18.1276C10.1978 19.5319 13.6396 21.0638 16.9539 22.468C17.7187 22.851 18.611 22.851 19.5033 22.5957C19.7583 22.468 20.1407 22.3404 20.3956 22.2127C21.033 21.8297 21.5429 21.3191 21.7978 20.5531C22.1803 19.7872 22.1803 18.8936 21.9253 18.1276C21.7978 17.8723 21.6704 17.617 21.5429 17.3617C21.4154 17.234 21.2879 16.9787 21.1605 16.851C21.1605 16.851 21.1605 16.851 21.033 16.7234C21.033 16.7234 21.033 16.7234 21.1605 16.851C22.0528 16.468 22.6901 15.8297 23.2 14.8085C23.3275 14.4255 23.5824 14.0425 23.7099 13.6595C23.8374 13.4042 23.9649 13.1489 24.0923 12.7659C24.6022 11.617 25.2396 10.851 26.2594 10.3404C26.3868 10.2127 26.3868 10.0851 26.3868 9.9574C26.1319 9.9574 26.0044 9.82974 25.877 9.82974ZM8.15827 9.44676C8.0308 9.19144 7.90333 8.93612 7.90333 8.80846C7.52091 7.91484 7.01102 7.27654 6.37366 6.76591C6.37366 6.76591 6.37366 6.76591 6.50113 6.76591C7.13849 6.63825 7.90333 6.51059 8.79564 6.51059C10.3253 6.51059 11.3451 6.63824 12.2374 7.02122C13.6396 7.65952 14.277 8.6808 14.4044 10.0851C12.8748 8.55314 10.9627 7.65952 8.66816 7.4042C8.66816 7.4042 7.39344 7.27654 8.41322 7.91484C8.54069 8.0425 8.66816 8.0425 8.66816 8.0425C10.5803 8.93612 12.1099 9.9574 13.2572 11.1063C14.022 11.8723 14.5319 12.6382 14.7868 13.4042C14.7868 13.4042 14.7868 13.5319 14.6594 13.5319C14.6594 13.5319 14.6594 13.5319 14.5319 13.4042C14.277 13.0212 14.1495 12.6382 13.8945 12.3829L13.6396 11.8723C13.5121 11.7446 13.3846 11.617 13.2572 11.617H13.1297C12.8748 11.7446 12.7473 11.7446 12.4923 11.7446C11.855 11.8723 11.3451 11.8723 10.8352 11.8723L9.30553 11.3617C9.05058 11.1063 8.79564 10.7234 8.54069 10.3404C8.41322 9.95739 8.28575 9.70208 8.15827 9.44676ZM13.6396 13.2765C13.1297 13.0212 12.4923 12.7659 11.9825 12.5106C12.1099 12.5106 12.2374 12.5106 12.4923 12.3829C12.7473 12.3829 12.8748 12.2553 13.1297 12.2553L13.3846 12.6382C13.3846 12.8936 13.5121 13.0212 13.6396 13.2765ZM11.4726 19.5319C9.94289 18.8936 8.41322 18.2553 6.88355 17.4893C6.37366 17.234 5.99124 16.9787 5.60882 16.468C5.35388 16.2127 5.22641 15.8297 5.09893 15.4468C4.97146 14.8085 4.97146 14.0425 5.35388 13.4042C5.60882 12.8936 5.99124 12.3829 6.50113 12.1276C7.39344 11.617 8.28575 11.617 9.17805 11.9999H9.30553C10.8352 12.6382 12.2374 13.2765 13.7671 13.9148H13.8945C13.1297 15.9574 12.3649 17.7446 11.4726 19.5319ZM20.9055 20.1702C20.6506 20.8085 20.2682 21.3191 19.6308 21.7021C18.866 22.2127 17.8462 22.2127 16.9539 21.8297C15.9341 21.3191 14.9143 20.9361 13.8945 20.4255C13.3846 20.1702 12.8748 20.0425 12.3649 19.7872H12.2374C13.0022 17.9999 13.7671 16.2127 14.5319 14.4255C14.5319 14.4255 14.5319 14.4255 14.6594 14.4255C14.7868 14.4255 14.7868 14.4255 14.9143 14.5531L15.0418 14.6808C15.0418 14.6808 15.0418 14.6808 15.1693 14.6808C16.5715 15.3191 17.8462 15.8297 19.2484 16.468C19.3759 16.5957 19.6308 16.5957 19.7583 16.7234C20.1407 16.9787 20.3956 17.234 20.6506 17.617C21.1605 18.5106 21.1605 19.4042 20.9055 20.1702ZM16.0616 14.2978C17.3363 12.8936 18.866 12.2553 20.5231 11.9999C20.1407 12.1276 19.8857 12.3829 19.5033 12.5106C18.866 12.8936 18.2286 13.2765 17.7187 13.7872C17.4638 14.0425 17.2088 14.2978 16.9539 14.5531C16.5715 14.5531 16.3165 14.4255 16.0616 14.2978ZM23.2 12.6382C23.0726 12.8936 22.9451 13.1489 22.8176 13.5319C22.6901 13.9148 22.4352 14.2978 22.3077 14.5531C21.7978 15.5744 21.1605 16.0851 20.3956 16.3404L20.5231 16.468C20.3956 16.3404 20.3956 16.3404 20.2682 16.2127C20.0132 16.0851 19.7583 15.8297 19.5033 15.7021C18.866 15.4468 18.1011 15.0638 17.4638 14.8085C18.4835 13.7872 19.6308 13.1489 20.9055 12.3829C21.2879 12.1276 21.7978 11.9999 22.3077 11.7446C22.4352 11.7446 22.5627 11.617 22.6901 11.4893C22.8176 11.3616 22.8176 11.234 22.8176 11.1063C22.8176 10.9787 22.5627 10.851 22.4352 10.851C19.7583 11.1063 17.4638 11.3616 15.5517 13.5319C15.6792 12.1276 16.5715 11.1063 18.1011 10.3404C19.2484 9.82973 20.5231 9.57442 22.3077 9.70208C23.455 9.70208 24.2198 9.82974 25.1121 10.0851C25.1121 10.0851 25.1121 10.0851 25.2396 10.0851C24.3473 10.851 23.7099 11.617 23.2 12.6382Z" fill="#121628"/>
<path d="M19.7584 15.9573C18.9935 15.5743 18.1012 15.1913 18.1012 15.1913L17.4639 14.936C18.4836 13.9148 19.6309 13.2765 20.9056 12.5105C19.6309 13.1488 18.4836 13.9148 17.4639 14.936C18.1012 15.1913 18.8661 15.5743 19.5034 15.8296C19.7584 15.9573 20.0133 16.085 20.2683 16.3403L20.1408 16.2126C20.0133 16.085 19.8858 16.085 19.7584 15.9573Z" fill="#121628"/>
<path d="M16.8264 14.6808L16.0615 14.2979C17.3362 12.8936 18.8659 12.2553 20.5231 12C18.7384 12.2553 17.3362 12.8936 16.0615 14.2979C16.3165 14.4255 16.5714 14.5532 16.8264 14.6808Z" fill="#121628"/>
<path d="M20.5232 12C20.1408 12.1277 19.8858 12.383 19.5034 12.5106C19.8858 12.383 20.1408 12.2553 20.5232 12Z" fill="#121628"/>
</svg>
