<svg width="30" height="29" viewBox="0 0 30 29" fill="none" xmlns="http://www.w3.org/2000/svg">
<path d="M18.4977 24.4278C18.3665 24.4278 18.3665 24.5584 18.2353 24.5584C17.9729 24.689 17.5794 24.8196 17.317 24.8196C14.8244 25.4728 12.463 25.3422 10.1016 24.2971C7.21544 22.9908 5.24761 20.9007 4.1981 17.7656C3.67334 16.0674 3.54215 14.2386 3.80453 12.5404C3.80453 12.4097 3.80453 12.2791 3.80453 12.2791C3.80453 12.1485 3.93572 12.0178 3.93572 11.8872C3.93572 11.2341 4.1981 10.7115 4.59166 10.3196C5.11642 9.66649 5.77236 9.2746 6.82187 8.75208C7.7402 8.36019 8.78971 7.96829 10.1016 7.70703C11.0199 6.2701 12.463 5.48631 14.1684 5.35568C16.3987 5.22505 18.2353 6.2701 19.1536 8.09892C20.072 8.36019 20.7279 8.62145 21.515 8.88271C22.6957 9.40523 23.4829 9.92775 24.1388 10.5809C24.6636 11.2341 25.0571 11.7566 25.1883 12.4097C25.1883 12.5404 25.1883 12.671 25.1883 12.9323C25.1883 13.0629 25.1883 13.0629 25.1883 13.1935C25.4507 15.153 25.1883 16.9818 24.4012 18.68C23.2205 21.2926 21.3838 23.2521 18.4977 24.4278ZM17.1858 24.1665C17.4482 24.0359 17.8417 23.9052 18.1041 23.9052C18.2353 23.9052 18.2353 23.7746 18.3665 23.7746C20.9903 22.5989 22.8269 20.9007 23.8764 18.4187C24.5324 16.7205 24.7947 15.0223 24.6636 13.1935C24.6636 13.0629 24.6636 12.9323 24.6636 12.9323C24.6636 12.8016 24.6636 12.671 24.6636 12.5404C24.5324 12.0178 24.27 11.626 23.7452 11.1034C23.0893 10.4503 22.4333 10.0584 21.3838 9.53586C20.7279 9.2746 20.072 9.01334 19.1536 8.75208L18.8912 8.88271L18.6289 8.75208C18.4977 8.62145 18.4977 8.62145 18.4977 8.49082C17.5794 6.79262 16.0051 5.8782 14.1684 6.00883C12.5942 6.13946 11.5447 6.79262 10.6264 8.09892C10.4952 8.22955 10.364 8.36019 10.2328 8.36019C8.92089 8.62145 8.00257 8.88271 7.08425 9.2746C6.16593 9.66649 5.64117 10.0584 5.11642 10.7115C4.85404 11.1034 4.59166 11.4953 4.59166 12.0178C4.59166 12.1485 4.59166 12.4097 4.46047 12.5404C4.46047 12.671 4.46047 12.671 4.46047 12.8016C4.1981 14.4998 4.32928 16.198 4.85404 17.7656C5.77236 20.6395 7.74019 22.5989 10.364 23.9052C12.5942 24.689 14.8244 24.8196 17.1858 24.1665Z" fill="#121628"/>
<path d="M14.0371 13.7161C13.906 13.8467 13.7748 13.8467 13.6436 13.9774L13.5124 14.108C13.3812 14.2386 13.3812 14.2386 13.5124 14.3692C13.6436 14.4999 13.7748 14.4999 13.7748 14.6305C13.906 14.7611 13.906 14.7611 14.0371 14.7611C14.0371 14.7611 14.1683 14.8918 14.0371 14.8918C14.0371 14.8918 13.906 14.8918 13.906 15.0224C13.6436 15.0224 13.3812 15.153 13.1188 15.153C12.9876 15.153 12.8564 15.2837 12.8564 15.4143C12.8564 15.5449 12.9876 15.6756 13.1188 15.6756C13.7748 15.9368 14.4307 16.0674 15.0867 15.8062C15.2178 15.8062 15.349 15.6756 15.349 15.5449C15.349 15.4143 15.2178 15.2837 15.0867 15.2837C14.9555 15.2837 14.9555 15.153 14.8243 15.153C14.8243 15.153 14.6931 15.0224 14.6931 14.8918C14.6931 14.7611 14.5619 14.7611 14.5619 14.6305C14.4307 14.4999 14.2995 14.4999 14.1683 14.3692C13.906 14.2386 13.906 14.108 14.1683 13.9774C14.2995 13.8467 14.4307 13.8467 14.5619 13.5855C14.5619 13.5855 14.5619 13.5855 14.5619 13.4548C14.2995 13.5855 14.1683 13.5855 14.0371 13.7161Z" fill="#121628"/>
<path d="M17.8416 15.6758C17.8416 15.5451 17.7105 15.4145 17.5793 15.4145C17.4481 15.4145 17.3169 15.2839 17.1857 15.2839C17.0545 15.2839 16.9233 15.1532 16.7921 15.0226C16.6609 14.892 16.5298 14.892 16.2674 14.7613C16.1362 14.6307 15.8738 14.6307 15.7426 14.6307C15.4802 14.5001 15.4802 14.3694 15.6114 14.2388C15.7426 14.1082 15.6114 13.9776 15.6114 13.8469C15.4802 13.8469 15.4802 13.8469 15.3491 13.8469C15.3491 13.8469 15.3491 13.9776 15.2179 13.9776C15.2179 14.1082 15.0867 14.1082 15.0867 14.2388C14.9555 14.3694 14.9555 14.5001 15.0867 14.6307C15.2179 14.7613 15.349 14.7613 15.4802 14.892C15.6114 15.0226 15.8738 15.0226 16.005 15.0226C16.005 15.0226 16.1362 15.0226 16.1362 15.1532V15.2839C16.1362 15.2839 16.1362 15.4145 16.005 15.4145C15.8738 15.4145 15.7426 15.4145 15.6114 15.5451C15.6114 15.5451 15.6114 15.5451 15.4802 15.5451C15.349 15.6758 15.2179 15.6758 15.2179 15.8064C15.2179 15.937 15.349 16.0676 15.4802 16.0676C16.005 16.3289 16.9233 16.4595 17.4481 16.1983C17.7104 15.8064 17.8416 15.8064 17.8416 15.6758Z" fill="#121628"/>
<path d="M12.8567 13.5857C12.5943 13.7164 12.4631 13.7164 12.2007 13.7164C12.0696 13.7164 11.9384 13.847 11.8072 13.847C11.676 13.9776 11.676 13.9776 11.8072 14.1082C11.8072 14.2389 11.9384 14.2389 11.9384 14.3695C12.0696 14.5001 11.9384 14.6308 11.676 14.6308C11.4136 14.6308 11.0201 14.6308 10.7577 14.6308C10.6265 14.6308 10.4953 14.7614 10.2329 14.7614C9.97054 14.892 9.97054 15.0227 10.2329 15.2839C10.4953 15.5452 10.8889 15.5452 11.1512 15.5452C11.5448 15.5452 11.9384 15.5452 12.2007 15.4146C12.2007 15.4146 12.3319 15.4146 12.3319 15.2839C12.4631 15.1533 12.4631 15.0227 12.3319 14.892C12.2007 14.7614 12.2007 14.7614 12.3319 14.5001C12.3319 14.3695 12.3319 14.3695 12.3319 14.2389C12.3319 14.1082 12.2007 14.1082 12.2007 13.9776C12.0696 13.847 12.2007 13.7164 12.3319 13.7164C12.4631 13.7164 12.4631 13.7164 12.5943 13.5857C12.8567 13.4551 12.9879 13.4551 13.2503 13.3245C13.1191 13.4551 12.9879 13.4551 12.8567 13.5857Z" fill="#121628"/>
<path d="M16.3988 13.8467C16.3988 13.9773 16.53 14.108 16.53 14.108C16.7923 14.2386 16.9235 14.2386 17.1859 14.3692C17.3171 14.3692 17.5795 14.3692 17.7107 14.4999C17.8418 14.4999 17.973 14.4999 17.973 14.6305C18.1042 14.6305 18.1042 14.7611 18.1042 14.7611L17.973 14.8918C17.8418 15.0224 17.7107 15.0224 17.7107 15.153C17.7107 15.2836 17.8418 15.4143 17.973 15.4143C18.4978 15.6755 18.8914 15.6755 19.4161 15.6755C19.5473 15.6755 19.8097 15.5449 19.9409 15.5449C20.2032 15.4143 20.2032 15.153 19.9409 15.0224C19.6785 14.8918 19.4161 14.7611 19.1537 14.7611C18.8914 14.7611 18.7602 14.6305 18.4978 14.6305C18.2354 14.4999 17.973 14.4999 17.7107 14.3692C17.5795 14.3692 17.3171 14.3692 17.1859 14.2386C17.0547 14.2386 16.9235 14.108 16.9235 13.9773C16.9235 13.7161 16.6611 13.5854 16.53 13.5854C16.3988 13.5854 16.3988 13.5854 16.2676 13.5854C16.2676 13.5854 16.2676 13.7161 16.3988 13.8467Z" fill="#121628"/>
<path d="M11.8068 13.1936C11.5445 13.1936 11.2821 13.1936 11.0197 13.1936C10.8885 13.1936 10.6261 13.3242 10.4949 13.3242C10.3638 13.3242 10.3638 13.4549 10.3638 13.5855C10.3638 13.9774 10.2326 13.9774 9.839 13.9774C9.31425 13.8468 8.92068 13.8468 8.39592 13.9774C8.26474 13.9774 8.26474 14.108 8.13355 14.108C8.00236 14.2386 8.00236 14.3693 8.13355 14.4999C8.26474 14.6305 8.39592 14.6305 8.52711 14.7612C9.05187 14.8918 9.57663 15.0224 10.1014 14.7612C10.2326 14.7612 10.3638 14.6305 10.3638 14.6305C10.3638 14.6305 10.4949 14.4999 10.4949 14.3693C10.4949 14.2387 10.4949 14.2386 10.6261 14.108C10.6261 14.108 10.7573 14.108 10.7573 13.9774C10.8885 13.8468 11.0197 13.8468 11.0197 13.7161C11.0197 13.4549 11.1509 13.3242 11.4133 13.3242C11.6756 13.3242 11.938 13.1936 12.2004 13.1936H12.3316C12.0692 13.1936 11.938 13.1936 11.8068 13.1936Z" fill="#121628"/>
<path d="M18.6286 13.9776C18.891 13.9776 19.1534 13.9776 19.2846 13.9776C19.4158 13.9776 19.4158 13.9776 19.5469 13.9776C19.6781 13.9776 19.6781 14.1082 19.6781 14.2389C19.5469 14.3695 19.5469 14.5001 19.6781 14.6308C19.8093 14.7614 19.9405 14.7614 19.9405 14.892C20.4653 15.1533 21.1212 15.1533 21.646 14.892C21.7772 14.892 21.9083 14.7614 21.9083 14.6308C21.9083 14.5001 21.7772 14.3695 21.646 14.3695C21.2524 14.2389 20.8588 14.1082 20.5965 14.1082C20.3341 14.1082 20.0717 14.1082 19.8093 13.9776C19.5469 13.9776 19.2846 13.9776 18.891 13.847C18.7598 13.847 18.6286 13.847 18.3662 13.847C18.1039 13.847 17.9727 13.7164 17.8415 13.5857C17.7103 13.4551 17.5791 13.3245 17.4479 13.3245C17.3167 13.3245 17.3167 13.3245 17.1855 13.3245C17.5791 13.847 18.1039 13.9776 18.6286 13.9776Z" fill="#121628"/>
<path d="M9.97017 12.6709C9.5766 12.6709 9.31422 12.8015 9.05184 13.0628C8.92065 13.3241 8.65828 13.3241 8.3959 13.1934C7.73995 12.9322 7.2152 12.9322 6.55925 13.0628C6.42806 13.0628 6.29688 13.1934 6.29688 13.3241C6.29688 13.4547 6.42806 13.5853 6.55925 13.5853C7.2152 13.8466 7.87114 13.9772 8.3959 13.7159C8.52709 13.7159 8.52709 13.5853 8.65828 13.5853C8.78947 13.4547 8.92065 13.4547 9.05184 13.3241C9.31422 13.3241 9.5766 13.1934 9.70779 12.9322C9.83898 12.8015 10.1014 12.6709 10.3637 12.6709C10.6261 12.6709 10.7573 12.6709 11.0197 12.6709C10.7573 12.6709 10.3637 12.6709 9.97017 12.6709Z" fill="#121628"/>
<path d="M19.5472 13.3241C19.8096 13.3241 19.9408 13.1935 20.2032 13.1935C20.3344 13.1935 20.4656 13.1935 20.4656 13.1935C20.5968 13.1935 20.7279 13.1935 20.7279 13.4547C20.7279 13.5854 20.8591 13.5854 20.8591 13.716C20.9903 13.8466 21.1215 13.8466 21.2527 13.9772C21.7775 14.1079 22.171 14.1079 22.6958 13.9772C22.827 13.9772 22.827 13.8466 22.9582 13.8466C23.0893 13.716 23.0893 13.5854 22.9582 13.4547C22.827 13.3241 22.6958 13.3241 22.5646 13.1935C22.171 13.0628 21.6463 13.0628 21.2527 13.0628C21.1215 13.0628 20.9903 13.0628 20.8591 13.0628C20.4656 13.0628 19.9408 13.0628 19.5472 13.0628C19.1537 13.1935 18.8913 13.0628 18.6289 12.9322C18.4977 12.8016 18.3665 12.8016 18.2354 12.9322C18.4977 13.3241 19.0225 13.3241 19.5472 13.3241Z" fill="#121628"/>
<path d="M19.9405 12.4099C20.2028 12.2792 20.334 12.2792 20.5964 12.2792C20.7276 12.2792 20.7276 12.2792 20.8588 12.4099C20.99 12.5405 21.1212 12.5405 21.2524 12.6711C21.7771 12.9324 22.4331 12.9324 22.9578 12.6711C22.9578 12.6711 23.089 12.6711 23.089 12.5405C23.2202 12.4099 23.2202 12.2792 23.089 12.1486C22.9578 12.018 22.8266 12.018 22.6954 11.8874C22.0395 11.6261 21.5147 11.6261 20.8588 11.8874C20.7276 11.8874 20.7276 12.018 20.5964 12.018C20.2028 12.018 19.6781 12.1486 19.2845 12.2792C19.1533 12.2792 19.0221 12.2792 18.891 12.2792C18.7598 12.2792 18.7598 12.2792 18.7598 12.4099C19.2845 12.6711 19.6781 12.5405 19.9405 12.4099Z" fill="#121628"/>
<path d="M9.70822 12.018C9.31465 12.018 9.05227 12.018 8.7899 12.1486C8.65871 12.2793 8.39633 12.2793 8.13395 12.2793C8.00276 12.2793 8.00276 12.2793 7.87157 12.1486C7.74038 12.018 7.6092 11.8874 7.47801 11.8874C6.95325 11.7567 6.42849 11.6261 5.90374 11.7567C5.77255 11.7567 5.77255 11.8874 5.64136 11.8874C5.51017 12.018 5.51017 12.1486 5.64136 12.2793C5.77255 12.4099 5.90374 12.4099 6.03493 12.5405C6.55968 12.6712 7.21563 12.6712 7.74038 12.5405C7.87157 12.5405 8.00276 12.4099 8.13395 12.4099C8.52752 12.4099 8.78989 12.2793 9.05227 12.1486C9.31465 12.018 9.57703 12.018 9.83941 12.018C9.97059 12.018 9.8394 12.018 9.70822 12.018Z" fill="#121628"/>
<path d="M19.6784 11.6261C19.8096 11.4955 19.8096 11.4955 19.9408 11.3649C20.072 11.2343 20.2032 11.3649 20.3343 11.3649C20.9903 11.6261 21.515 11.7568 22.171 11.4955C22.3022 11.4955 22.4334 11.3649 22.4334 11.2343C22.4334 11.1036 22.3022 10.973 22.171 10.973C21.515 10.7117 20.8591 10.5811 20.2032 10.8424C20.072 10.8424 20.072 10.973 20.072 10.973C19.9408 11.1036 19.8096 11.2343 19.6784 11.2343H19.5472C19.416 11.2343 19.2848 11.3649 19.1537 11.6261C19.1537 11.7568 19.1536 11.7568 19.0225 11.8874C19.2848 11.7568 19.416 11.7568 19.6784 11.6261Z" fill="#121628"/>
<path d="M9.70813 11.234C9.44575 11.234 9.18337 11.234 8.92099 11.3647C8.65862 11.3647 8.52743 11.3647 8.26505 11.3647C8.13386 11.3647 8.13386 11.3647 8.13386 11.234C8.13386 11.1034 8.13386 11.1034 8.00267 10.9728C7.87148 10.8421 7.74029 10.8421 7.6091 10.7115C7.08435 10.5809 6.5596 10.5809 6.03484 10.7115C5.90365 10.7115 5.77246 10.8421 5.77246 10.9728C5.77246 11.1034 5.90365 11.234 6.03484 11.234C6.5596 11.4953 7.08435 11.4953 7.6091 11.3647C7.87148 11.3647 8.00267 11.3647 8.26505 11.3647C8.52743 11.3647 8.78981 11.3647 9.05218 11.3647C9.31456 11.3647 9.57694 11.234 9.83932 11.234C9.70813 11.3647 9.70813 11.3647 9.70813 11.234Z" fill="#121628"/>
<path d="M9.4458 10.581C9.31461 10.581 9.18342 10.581 9.05223 10.581C8.92105 10.581 8.92105 10.4503 9.05223 10.4503C9.18342 10.3197 9.18342 10.1891 9.05223 10.0585C8.92105 9.92782 8.78986 9.92782 8.65867 9.79719C8.2651 9.66656 7.74035 9.66656 7.21559 9.79719C7.0844 9.79719 6.95321 9.92782 6.82202 9.92782C6.69084 10.0585 6.69084 10.1891 6.82202 10.3197C6.95321 10.4503 7.0844 10.4503 7.0844 10.4503C7.47797 10.581 7.74035 10.581 8.13391 10.581C8.39629 10.581 8.52748 10.581 8.78986 10.7116C9.05224 10.7116 9.31461 10.8422 9.57699 10.8422C9.70818 10.7116 9.57699 10.581 9.4458 10.581Z" fill="#121628"/>
<path d="M19.2845 10.5809C19.8093 10.7115 20.2028 10.7115 20.5964 10.5809C20.5964 10.5809 20.7276 10.5809 20.7276 10.4503C20.8588 10.3197 20.8588 10.189 20.7276 10.0584C20.7276 10.0584 20.5964 9.92776 20.4652 9.92776C20.0716 9.6665 19.6781 9.6665 19.1533 9.6665C19.2845 9.92777 19.2845 10.3197 19.2845 10.5809Z" fill="#121628"/>
<path d="M8.78956 9.14393C8.52718 9.27456 8.52718 9.40519 8.78956 9.66645C9.05193 9.79708 9.31431 9.92771 9.57669 9.92771H9.70788C9.70788 9.66645 9.83907 9.40519 9.83907 9.0133C9.4455 8.88266 9.05193 8.88267 8.78956 9.14393Z" fill="#121628"/>
<path d="M17.4479 13.3241C15.7425 14.1079 13.5122 13.716 13.3811 13.5854C11.5444 13.4548 10.3637 12.8016 9.83895 11.7566C8.92063 10.0584 10.1013 7.83765 10.1013 7.83765L10.6261 8.09891C10.6261 8.09891 9.57658 10.0584 10.3637 11.4953C10.7573 12.2791 11.8068 12.8016 13.3811 12.9322C13.3811 12.9322 16.6608 13.5854 18.1039 12.0178C18.891 11.234 19.0222 10.0584 18.6286 8.36017L19.2846 8.22954C19.8093 10.0584 19.5469 11.4953 18.6286 12.5403C18.235 12.9322 17.8415 13.1935 17.4479 13.3241Z" fill="#121628"/>
<path d="M22.0398 16.0676C18.8912 17.3739 14.4308 17.5046 14.1684 17.5046C4.72284 16.982 4.06689 12.1487 4.06689 12.0181L4.72284 11.8875C4.72284 11.8875 5.37878 16.3289 14.1684 16.8514C14.2996 16.8514 24.27 16.7208 24.5324 12.5406H25.1883C25.0571 14.1082 23.7452 15.2838 22.0398 16.0676Z" fill="#121628"/>
<path d="M14.562 29C6.55944 29 0 22.4685 0 14.5C0 6.53153 6.55944 0 14.562 0C22.5645 0 29.1239 6.53153 29.1239 14.5C29.1239 22.4685 22.5645 29 14.562 29ZM14.562 0.783784C6.95301 0.783784 0.918322 6.92342 0.918322 14.3694C0.918322 21.8153 7.0842 27.955 14.562 27.955C22.0397 27.955 28.2056 21.8153 28.2056 14.3694C28.2056 6.92342 22.0397 0.783784 14.562 0.783784Z" fill="#121628"/>
</svg>
