<?xml version="1.0" encoding="utf-8"?>
<!-- Generator: Adobe Illustrator 28.0.0, SVG Export Plug-In . SVG Version: 6.00 Build 0)  -->
<svg version="1.1" xmlns="http://www.w3.org/2000/svg" xmlns:xlink="http://www.w3.org/1999/xlink" x="0px" y="0px"
	 viewBox="0 0 91.4 91.8" style="enable-background:new 0 0 91.4 91.8;" xml:space="preserve">
<style type="text/css">
	.st0{fill:#111426;}
</style>
<g id="Calque_1">
</g>
<g id="TEXTE">
	<path class="st0" d="M11.8,57.6c0-0.2,0-0.3,0-0.4c0-3.3,0-6.6,0-9.9c0-3,1.1-5.7,3.3-7.8c3.2-3.1,7-3.9,11.2-2.5
		c2,0.7,3.5,1.9,4.8,3.5c0.1,0.1,0.1,0.1,0,0.1c0.7-0.6,1.3-1.2,2-1.7c4-3.3,9.7-3.2,13.5-0.1c2.9,2.3,4.2,5.4,4.3,9.1
		c0,3.2,0,6.3,0,9.5c0,0.2,0,0.4-0.3,0.4c-1.4,0-2.7,0-4.2,0c0-0.2,0-0.3,0-0.4c0-3.1,0-6.3,0-9.4c0-3.1-1.7-5.7-4.4-6.7
		c-3.4-1.2-7.2,0.7-8.2,4.3c-0.2,0.8-0.3,1.7-0.3,2.6c0,3.1,0,6.1,0,9.2c0,0.1,0,0.2,0,0.4c-1.5,0-3,0-4.5,0c0-0.2,0-0.3,0-0.4
		c0-3.4,0-6.7,0-10.1c0-3.7-3.5-6.8-7.2-6.3c-3.1,0.4-5.6,3.2-5.6,6.4c0,3.3,0,6.6,0,10c0,0.2,0,0.3,0,0.5
		C14.8,57.6,13.3,57.6,11.8,57.6z"/>
	<path class="st0" d="M75.9,47.1c0,5.8-4.6,10.8-10.8,10.9c-6,0.1-10.9-4.7-11-10.7c-0.1-5.9,4.6-10.8,10.6-11
		C71,36.2,75.9,41.2,75.9,47.1z M65,53.5c3.6,0,6.5-2.8,6.5-6.4c0-3.5-2.9-6.3-6.5-6.3c-3.6,0-6.4,2.8-6.4,6.4
		C58.6,50.7,61.5,53.5,65,53.5z"/>
	<path class="st0" d="M73.6,37.5c-1.7,0-3.1-1.4-3.1-3c0-1.5,1.4-3,3-3c1.6,0,3,1.3,3.1,3C76.5,36.1,75.2,37.5,73.6,37.5z"/>
	<path class="st0" d="M45.8,89.2C22,89.2,2.6,69.8,2.6,46C2.6,22.2,22,2.8,45.8,2.8c23.8,0,43.2,19.4,43.2,43.2
		C88.9,69.8,69.6,89.2,45.8,89.2z M45.8,6.8C24.2,6.8,6.6,24.4,6.6,46s17.6,39.2,39.2,39.2S84.9,67.6,84.9,46S67.4,6.8,45.8,6.8z"/>
</g>
</svg>
